<svg width="33" height="33" viewBox="0 0 33 33" fill="none" xmlns="http://www.w3.org/2000/svg">
<g clip-path="url(#clip0_1_1491)">
<path d="M11.1036 27.0683C10.6964 27.4754 10.6964 28.1355 11.1016 28.5404L11.306 28.7448C11.7129 29.1517 12.373 29.1517 12.7799 28.7448L13.01 28.5127L11.3355 26.8384L11.1036 27.0683Z" fill="#8A8A8A"/>
<path d="M8.25854 24.8414C7.85165 25.2462 7.85165 25.9083 8.25854 26.3155L8.46099 26.5179C8.87033 26.927 9.53052 26.925 9.93535 26.5179C9.93535 26.5179 10.1348 26.3182 10.4668 25.9861L10.4676 25.9851C10.4704 25.9824 10.4724 25.9806 10.4751 25.9778L8.7984 24.3015L8.25854 24.8414Z" fill="#8A8A8A"/>
<path d="M6.28814 21.7913L6.05598 22.0211C5.64915 22.428 5.64915 23.0881 6.05398 23.493L6.25843 23.6977C6.66577 24.1048 7.32564 24.1048 7.73279 23.6977L7.96238 23.4658L6.28814 21.7913Z" fill="#8A8A8A"/>
<path d="M25.9165 3.48096L21.6332 7.81266L18.4633 8.85448L17.4532 9.18731H17.4512L16.4411 9.52067H16.4389L9.00105 11.9669C8.8744 12.0112 8.75857 12.0807 8.66144 12.1693C8.61104 12.2136 8.56676 12.2622 8.52848 12.3168C8.48645 12.3698 8.45274 12.4266 8.42323 12.4878C8.31997 12.7071 8.29683 12.9538 8.35781 13.186C8.36438 13.2132 8.37237 13.2428 8.38294 13.2701L8.4947 13.5842C8.54556 13.7237 8.62361 13.8502 8.73086 13.9579V13.9599C8.77972 14.0083 8.83437 14.0526 8.88922 14.0883C8.97359 14.1432 9.06621 14.1875 9.16141 14.215C9.18455 14.2233 9.20975 14.2298 9.23495 14.2339C9.30694 14.251 9.38048 14.2593 9.45647 14.2593C9.49224 14.2593 9.52595 14.257 9.56198 14.2529C9.5935 14.2509 9.62321 14.2466 9.65492 14.2404C9.66949 14.2384 9.68638 14.2338 9.70127 14.2298C9.73498 14.2232 9.76669 14.2127 9.79814 14.2023L13.0709 13.4916H13.0732C13.0963 13.4853 13.1173 13.479 13.1407 13.477C13.149 13.4747 13.1576 13.4727 13.1661 13.4727L13.1721 13.4705L18.8878 12.2318L21.4571 14.8003L21.8829 15.2284L21.8942 15.2397L21.8753 15.2357L26.6161 19.9743C27.5545 18.9873 28.1766 17.7642 28.4253 16.4228L28.6997 14.9111L33 10.5645L25.9165 3.48096Z" fill="#8A8A8A"/>
<path d="M25.7239 20.8725L18.486 13.613L13.434 14.7084L13.3431 14.7296H13.3325L13.2925 14.7379L10.1313 15.4255C9.98372 15.4696 9.83194 15.4993 9.67809 15.5118C9.60409 15.5204 9.53055 15.5244 9.4565 15.5244C8.84496 15.5244 8.26914 15.2843 7.83711 14.8516C7.6007 14.6155 7.42171 14.3351 7.30338 14.0082L7.18955 13.6899C6.9891 13.1184 7.02081 12.5006 7.28217 11.9417C7.54379 11.3953 8.00353 10.9799 8.57504 10.7754L8.58986 10.7689L8.60649 10.7649L11.8163 9.70893L14.4111 8.86421L14.3978 8.85996L14.4144 8.85441L11.2471 7.81272L7.16287 3.56359L7.09087 3.4883V3.4885L7.08353 3.48096L0 10.5645L4.18036 14.9111L4.45635 16.4228C4.71365 17.8254 5.38435 19.0991 6.39446 20.1092L7.15778 20.8705L8.83659 22.5491L9.69265 23.4074L11.3691 25.0839L12.2295 25.9422L13.9062 27.6187L15.5067 29.2192C15.7048 29.4176 15.9642 29.5189 16.2258 29.5189C16.2976 29.5189 16.3713 29.5103 16.441 29.4957C16.6263 29.4554 16.8016 29.3628 16.9471 29.2192L17.1813 28.9851C17.5796 28.5867 17.5796 27.9412 17.1813 27.5429L12.8393 23.2009C12.5754 22.937 12.6071 22.4879 12.9339 22.2666C13.0331 22.1992 13.145 22.1697 13.2587 22.1697C13.4254 22.1697 13.5921 22.2371 13.7165 22.3595L13.9063 22.5492L14.7643 23.4074L17.2992 25.9422L18.976 27.6188L20.1019 28.745C20.3043 28.9494 20.5722 29.0506 20.8381 29.0506C21.1057 29.0506 21.3714 28.9494 21.5737 28.745L21.7785 28.5405C22.1856 28.1356 22.1856 27.4756 21.7785 27.0684L18.976 24.266L18.1154 23.4074L16.4412 21.7311L15.5806 20.8726L15.3908 20.6827C15.1546 20.4446 15.14 20.0589 15.3613 19.8247L15.3761 19.8096C15.49 19.6938 15.644 19.6306 15.8062 19.6306C15.8082 19.6306 15.8082 19.6306 15.8104 19.6306C15.9708 19.6306 16.1224 19.6938 16.2364 19.8076C16.2933 19.8644 16.3631 19.9342 16.4411 20.012C16.6581 20.2316 16.9555 20.5266 17.2992 20.8725C17.7865 21.3597 18.3684 21.9441 18.9737 22.5491L19.834 23.4093C20.4309 24.0063 21.015 24.5884 21.5108 25.0839C22.3521 25.9255 22.9446 26.518 22.9446 26.518C23.1493 26.7227 23.4149 26.8239 23.6826 26.8239C23.9485 26.8239 24.2143 26.7227 24.4188 26.518L24.6232 26.3156C25.0281 25.9085 25.0281 25.2463 24.6232 24.8415L23.1871 23.4074L17.7147 17.9395C17.5797 17.8171 17.5757 17.6102 17.7021 17.4817L17.9111 17.2728C18.0289 17.1549 18.185 17.0958 18.3411 17.0958C18.4972 17.0958 18.6513 17.1549 18.7691 17.2728L24.0457 22.5491L24.4462 22.9496C24.6908 23.1943 25.0197 23.3232 25.3446 23.3232C25.5765 23.3232 25.8066 23.2578 26.0005 23.1209C26.3504 22.8761 26.5402 22.469 26.5002 22.0347C26.4748 21.7457 26.3315 21.4797 26.1268 21.2754L25.7239 20.8725Z" fill="#8A8A8A"/>
</g>
<defs>
<clipPath id="clip0_1_1491">
<rect width="33" height="33" fill="white"/>
</clipPath>
</defs>
</svg>
