<svg width="53" height="53" viewBox="0 0 53 53" fill="none" xmlns="http://www.w3.org/2000/svg">
<g clip-path="url(#clip0_1_2276)">
<path d="M40.5899 25.7993C44.3335 25.7993 47.3683 22.5584 47.3683 18.5606C47.3683 14.5629 44.3335 11.322 40.5899 11.322C36.8463 11.322 33.8115 14.5629 33.8115 18.5606C33.8115 22.5584 36.8463 25.7993 40.5899 25.7993Z" fill="white" stroke="url(#paint0_linear_1_2276)" stroke-linecap="round" stroke-linejoin="round"/>
<path d="M46.9026 18.7212C46.9026 14.9094 44.0085 11.8181 40.4371 11.8181C36.8658 11.8181 33.9717 14.9094 33.9717 18.7212C33.9717 22.533 36.8658 25.6243 40.4371 25.6243C44.0085 25.6243 46.9026 22.533 46.9026 18.7212ZM47.6674 18.7212C47.6674 22.9862 44.4297 26.4424 40.4371 26.4424C36.4446 26.4424 33.2069 22.9862 33.2069 18.7212C33.2069 14.4562 36.4446 11 40.4371 11C44.4297 11 47.6674 14.4562 47.6674 18.7212Z" fill="url(#paint1_linear_1_2276)" stroke="url(#paint2_linear_1_2276)" stroke-linecap="round" stroke-linejoin="round"/>
<path d="M44.3303 25.8H36.6487C32.1436 25.8 28.4916 30.4741 28.4916 36.2406L28.3879 41.8859H52.3852L52.4888 36.2406C52.4888 30.4741 48.8368 25.8 44.3317 25.8H44.3303Z" fill="white" stroke="url(#paint3_linear_1_2276)" stroke-linecap="round" stroke-linejoin="round"/>
<path d="M44.3039 25.4766C49.0518 25.4766 52.789 30.355 52.789 36.2129C52.789 36.2156 52.7889 36.2183 52.7889 36.2209L52.686 41.8051C52.6819 42.0277 52.5113 42.2058 52.3022 42.2058H28.4694C28.3663 42.2058 28.2675 42.1616 28.1953 42.0832C28.1231 42.0048 28.0836 41.8988 28.0856 41.789L28.1886 36.2049C28.192 30.3505 31.9278 25.4766 36.6735 25.4766H44.3039ZM36.6735 26.2941C32.4731 26.2941 28.9561 30.6627 28.9561 36.2129C28.9561 36.2156 28.9561 36.2183 28.9561 36.2209L28.8608 41.3883H51.9259L52.0213 36.2129L52.0207 36.083C51.9663 30.5947 48.4716 26.2941 44.3039 26.2941H36.6735Z" fill="url(#paint4_linear_1_2276)" stroke="url(#paint5_linear_1_2276)" stroke-linecap="round" stroke-linejoin="round"/>
<path d="M32.3046 34.2487C32.3046 34.0244 32.4756 33.8425 32.6867 33.8425C32.8977 33.8425 33.0688 34.0244 33.0688 34.2487V41.3947H48.1097V34.2487C48.1097 34.0244 48.2808 33.8425 48.4918 33.8425C48.7028 33.8425 48.8739 34.0244 48.8739 34.2487V41.8009C48.8739 42.0253 48.7028 42.2072 48.4918 42.2072H32.6867C32.4756 42.2072 32.3046 42.0253 32.3046 41.8009V34.2487Z" fill="url(#paint6_linear_1_2276)" stroke="url(#paint7_linear_1_2276)" stroke-linecap="round" stroke-linejoin="round"/>
<path d="M13.3527 25.7993C17.1795 25.7993 20.2817 22.5584 20.2817 18.5606C20.2817 14.5629 17.1795 11.322 13.3527 11.322C9.52593 11.322 6.42371 14.5629 6.42371 18.5606C6.42371 22.5584 9.52593 25.7993 13.3527 25.7993Z" fill="white" stroke="url(#paint8_linear_1_2276)" stroke-linecap="round" stroke-linejoin="round"/>
<path d="M19.817 18.7212C19.817 14.9094 16.923 11.8181 13.3516 11.8181C9.78018 11.8181 6.88612 14.9094 6.88612 18.7212C6.88612 22.533 9.78018 25.6243 13.3516 25.6243C16.923 25.6243 19.817 22.533 19.817 18.7212ZM20.5819 18.7212C20.5819 22.9862 17.3441 26.4424 13.3516 26.4424C9.35904 26.4424 6.12134 22.9862 6.12134 18.7212C6.12134 14.4562 9.35904 11 13.3516 11C17.3441 11 20.5819 14.4562 20.5819 18.7212Z" fill="url(#paint9_linear_1_2276)" stroke="url(#paint10_linear_1_2276)" stroke-linecap="round" stroke-linejoin="round"/>
<path d="M17.2447 25.8H9.56309C5.05802 25.8 1.40598 30.4741 1.40598 36.2406L1.30237 41.8859H25.2996L25.4032 36.2406C25.4032 30.4741 21.7512 25.8 17.2461 25.8H17.2447Z" fill="white" stroke="url(#paint11_linear_1_2276)" stroke-linecap="round" stroke-linejoin="round"/>
<path d="M17.2184 25.4766C21.9663 25.4766 25.7034 30.355 25.7034 36.2129C25.7034 36.2156 25.7034 36.2183 25.7033 36.2209L25.6004 41.8051C25.5963 42.0277 25.4257 42.2058 25.2166 42.2058H1.38383C1.28073 42.2058 1.18193 42.1616 1.10975 42.0832C1.03757 42.0048 0.998051 41.8988 1.00007 41.789L1.103 36.2049C1.10641 30.3505 4.84221 25.4766 9.58797 25.4766H17.2184ZM9.58797 26.2941C5.38748 26.2941 1.87058 30.6627 1.87058 36.2129C1.87058 36.2156 1.87056 36.2183 1.87051 36.2209L1.77525 41.3883H24.8403L24.9357 36.2094C24.9342 30.6609 21.418 26.2941 17.2184 26.2941H9.58797Z" fill="url(#paint12_linear_1_2276)" stroke="url(#paint13_linear_1_2276)" stroke-linecap="round" stroke-linejoin="round"/>
<path d="M4.91663 34.2475C4.91663 34.0232 5.0877 33.8413 5.29875 33.8413C5.50979 33.8413 5.68087 34.0232 5.68087 34.2475V41.3935H20.7217V34.2475C20.7217 34.0232 20.8928 33.8413 21.1039 33.8413C21.3149 33.8413 21.486 34.0232 21.486 34.2475V41.7997C21.486 42.0241 21.3149 42.2059 21.1039 42.2059H5.29875C5.08771 42.2059 4.91663 42.0241 4.91663 41.7997V34.2475Z" fill="url(#paint14_linear_1_2276)" stroke="url(#paint15_linear_1_2276)" stroke-linecap="round" stroke-linejoin="round"/>
</g>
<defs>
<linearGradient id="paint0_linear_1_2276" x1="33.8115" y1="18.5606" x2="47.3683" y2="18.5606" gradientUnits="userSpaceOnUse">
<stop stop-color="#BF5331"/>
<stop offset="1" stop-color="#EF6A5A"/>
</linearGradient>
<linearGradient id="paint1_linear_1_2276" x1="33.2069" y1="18.7212" x2="47.6674" y2="18.7212" gradientUnits="userSpaceOnUse">
<stop stop-color="#BF5331"/>
<stop offset="1" stop-color="#EF6A5A"/>
</linearGradient>
<linearGradient id="paint2_linear_1_2276" x1="33.2069" y1="18.7212" x2="47.6674" y2="18.7212" gradientUnits="userSpaceOnUse">
<stop stop-color="#BF5331"/>
<stop offset="1" stop-color="#EF6A5A"/>
</linearGradient>
<linearGradient id="paint3_linear_1_2276" x1="28.3879" y1="33.843" x2="52.4888" y2="33.843" gradientUnits="userSpaceOnUse">
<stop stop-color="#BF5331"/>
<stop offset="1" stop-color="#EF6A5A"/>
</linearGradient>
<linearGradient id="paint4_linear_1_2276" x1="28.0856" y1="33.8412" x2="52.789" y2="33.8412" gradientUnits="userSpaceOnUse">
<stop stop-color="#BF5331"/>
<stop offset="1" stop-color="#EF6A5A"/>
</linearGradient>
<linearGradient id="paint5_linear_1_2276" x1="28.0856" y1="33.8412" x2="52.789" y2="33.8412" gradientUnits="userSpaceOnUse">
<stop stop-color="#BF5331"/>
<stop offset="1" stop-color="#EF6A5A"/>
</linearGradient>
<linearGradient id="paint6_linear_1_2276" x1="32.3046" y1="38.0248" x2="48.8739" y2="38.0248" gradientUnits="userSpaceOnUse">
<stop stop-color="#BF5331"/>
<stop offset="1" stop-color="#EF6A5A"/>
</linearGradient>
<linearGradient id="paint7_linear_1_2276" x1="32.3046" y1="38.0248" x2="48.8739" y2="38.0248" gradientUnits="userSpaceOnUse">
<stop stop-color="#BF5331"/>
<stop offset="1" stop-color="#EF6A5A"/>
</linearGradient>
<linearGradient id="paint8_linear_1_2276" x1="6.42371" y1="18.5606" x2="20.2817" y2="18.5606" gradientUnits="userSpaceOnUse">
<stop stop-color="#BF5331"/>
<stop offset="1" stop-color="#EF6A5A"/>
</linearGradient>
<linearGradient id="paint9_linear_1_2276" x1="6.12134" y1="18.7212" x2="20.5819" y2="18.7212" gradientUnits="userSpaceOnUse">
<stop stop-color="#BF5331"/>
<stop offset="1" stop-color="#EF6A5A"/>
</linearGradient>
<linearGradient id="paint10_linear_1_2276" x1="6.12134" y1="18.7212" x2="20.5819" y2="18.7212" gradientUnits="userSpaceOnUse">
<stop stop-color="#BF5331"/>
<stop offset="1" stop-color="#EF6A5A"/>
</linearGradient>
<linearGradient id="paint11_linear_1_2276" x1="1.30237" y1="33.843" x2="25.4032" y2="33.843" gradientUnits="userSpaceOnUse">
<stop stop-color="#BF5331"/>
<stop offset="1" stop-color="#EF6A5A"/>
</linearGradient>
<linearGradient id="paint12_linear_1_2276" x1="1" y1="33.8412" x2="25.7034" y2="33.8412" gradientUnits="userSpaceOnUse">
<stop stop-color="#BF5331"/>
<stop offset="1" stop-color="#EF6A5A"/>
</linearGradient>
<linearGradient id="paint13_linear_1_2276" x1="1" y1="33.8412" x2="25.7034" y2="33.8412" gradientUnits="userSpaceOnUse">
<stop stop-color="#BF5331"/>
<stop offset="1" stop-color="#EF6A5A"/>
</linearGradient>
<linearGradient id="paint14_linear_1_2276" x1="4.91663" y1="38.0236" x2="21.486" y2="38.0236" gradientUnits="userSpaceOnUse">
<stop stop-color="#BF5331"/>
<stop offset="1" stop-color="#EF6A5A"/>
</linearGradient>
<linearGradient id="paint15_linear_1_2276" x1="4.91663" y1="38.0236" x2="21.486" y2="38.0236" gradientUnits="userSpaceOnUse">
<stop stop-color="#BF5331"/>
<stop offset="1" stop-color="#EF6A5A"/>
</linearGradient>
<clipPath id="clip0_1_2276">
<rect width="53" height="53" fill="white"/>
</clipPath>
</defs>
</svg>
