<svg width="302" height="3" viewBox="0 0 302 3" fill="none" xmlns="http://www.w3.org/2000/svg">
<path d="M302 0.5C302.276 0.5 302.5 0.276142 302.5 0C302.5 -0.276142 302.276 -0.5 302 -0.5V0V0.5ZM151 3L150.732 3.42195L151 3.59249L151.268 3.42195L151 3ZM155.719 0V-0.5H155.573L155.451 -0.421946L155.719 0ZM146.281 0L146.55 -0.421946L146.427 -0.5H146.281V0ZM226.5 0V0.5H302V0V-0.5H226.5V0ZM188.75 0V0.5H226.5V0V-0.5H188.75V0ZM169.875 0V0.5H188.75V0V-0.5H169.875V0ZM160.438 0V0.5H169.875V0V-0.5H160.438V0ZM151 3L151.268 3.42195L155.987 0.421946L155.719 0L155.451 -0.421946L150.732 2.57805L151 3ZM155.719 0V0.5H160.438V0V-0.5H155.719V0ZM0 0V0.5H75.5V0V-0.5H0V0ZM75.5 0V0.5H113.25V0V-0.5H75.5V0ZM113.25 0V0.5H132.125V0V-0.5H113.25V0ZM132.125 0V0.5H141.562V0V-0.5H132.125V0ZM141.562 0V0.5H146.281V0V-0.5H141.562V0ZM146.281 0L146.013 0.421946L150.732 3.42195L151 3L151.268 2.57805L146.55 -0.421946L146.281 0Z" fill="white"/>
</svg>
