<svg width="53" height="53" viewBox="0 0 53 53" fill="none" xmlns="http://www.w3.org/2000/svg">
<g clip-path="url(#clip0_86_325)">
<path d="M40.5899 25.7994C44.3334 25.7994 47.3682 22.5585 47.3682 18.5608C47.3682 14.563 44.3334 11.3221 40.5899 11.3221C36.8463 11.3221 33.8115 14.563 33.8115 18.5608C33.8115 22.5585 36.8463 25.7994 40.5899 25.7994Z" fill="white" stroke="url(#paint0_linear_86_325)" stroke-linecap="round" stroke-linejoin="round"/>
<path d="M46.9025 18.7212C46.9025 14.9094 44.0084 11.8181 40.437 11.8181C36.8656 11.8181 33.9716 14.9094 33.9716 18.7212C33.9716 22.533 36.8656 25.6243 40.437 25.6243C44.0084 25.6243 46.9025 22.533 46.9025 18.7212ZM47.6673 18.7212C47.6673 22.9862 44.4296 26.4424 40.437 26.4424C36.4445 26.4424 33.2068 22.9862 33.2068 18.7212C33.2068 14.4562 36.4445 11 40.437 11C44.4296 11 47.6673 14.4562 47.6673 18.7212Z" fill="url(#paint1_linear_86_325)" stroke="url(#paint2_linear_86_325)" stroke-linecap="round" stroke-linejoin="round"/>
<path d="M44.3302 25.8H36.6485C32.1435 25.8 28.4914 30.4741 28.4914 36.2405L28.3878 41.8858H52.3851L52.4887 36.2405C52.4887 30.4741 48.8367 25.8 44.3316 25.8H44.3302Z" fill="white" stroke="url(#paint3_linear_86_325)" stroke-linecap="round" stroke-linejoin="round"/>
<path d="M44.3038 25.4767C49.0517 25.4767 52.7889 30.3551 52.7889 36.213C52.7889 36.2157 52.7888 36.2184 52.7888 36.2211L52.6859 41.8052C52.6818 42.0278 52.5112 42.2059 52.3021 42.2059H28.4693C28.3662 42.2059 28.2674 42.1618 28.1952 42.0834C28.123 42.005 28.0835 41.8989 28.0855 41.7891L28.1885 36.205C28.1919 30.3507 31.9277 25.4767 36.6734 25.4767H44.3038ZM36.6734 26.2942C32.473 26.2942 28.956 30.6628 28.956 36.213C28.956 36.2157 28.956 36.2184 28.956 36.2211L28.8607 41.3884H51.9258L52.0212 36.213L52.0206 36.0831C51.9662 30.5948 48.4715 26.2943 44.3038 26.2942H36.6734Z" fill="url(#paint4_linear_86_325)" stroke="url(#paint5_linear_86_325)" stroke-linecap="round" stroke-linejoin="round"/>
<path d="M32.3046 34.2486C32.3046 34.0243 32.4756 33.8424 32.6867 33.8424C32.8977 33.8424 33.0688 34.0243 33.0688 34.2486V41.3946H48.1097V34.2486C48.1097 34.0243 48.2807 33.8424 48.4918 33.8424C48.7028 33.8424 48.8739 34.0243 48.8739 34.2486V41.8008C48.8739 42.0252 48.7028 42.207 48.4918 42.207H32.6867C32.4756 42.207 32.3046 42.0252 32.3046 41.8008V34.2486Z" fill="url(#paint6_linear_86_325)" stroke="url(#paint7_linear_86_325)" stroke-linecap="round" stroke-linejoin="round"/>
<path d="M13.3527 25.7994C17.1794 25.7994 20.2817 22.5585 20.2817 18.5608C20.2817 14.563 17.1794 11.3221 13.3527 11.3221C9.52587 11.3221 6.42365 14.563 6.42365 18.5608C6.42365 22.5585 9.52587 25.7994 13.3527 25.7994Z" fill="white" stroke="url(#paint8_linear_86_325)" stroke-linecap="round" stroke-linejoin="round"/>
<path d="M19.817 18.7212C19.817 14.9094 16.9229 11.8181 13.3515 11.8181C9.78015 11.8181 6.88609 14.9094 6.88609 18.7212C6.88609 22.533 9.78015 25.6243 13.3515 25.6243C16.9229 25.6243 19.817 22.533 19.817 18.7212ZM20.5818 18.7212C20.5818 22.9862 17.3441 26.4424 13.3515 26.4424C9.35901 26.4424 6.1213 22.9862 6.1213 18.7212C6.1213 14.4562 9.35901 11 13.3515 11C17.3441 11 20.5818 14.4562 20.5818 18.7212Z" fill="url(#paint9_linear_86_325)" stroke="url(#paint10_linear_86_325)" stroke-linecap="round" stroke-linejoin="round"/>
<path d="M17.2447 25.8H9.56306C5.05798 25.8 1.40595 30.4741 1.40595 36.2405L1.30233 41.8858H25.2996L25.4032 36.2405C25.4032 30.4741 21.7512 25.8 17.2461 25.8H17.2447Z" fill="white" stroke="url(#paint11_linear_86_325)" stroke-linecap="round" stroke-linejoin="round"/>
<path d="M17.2183 25.4767C21.9663 25.4767 25.7034 30.3551 25.7034 36.213C25.7034 36.2157 25.7034 36.2184 25.7033 36.2211L25.6004 41.8052C25.5963 42.0278 25.4257 42.2059 25.2166 42.2059H1.38381C1.28071 42.2059 1.18192 42.1618 1.10973 42.0834C1.03755 42.005 0.998036 41.8989 1.00006 41.7891L1.10299 36.205C1.10639 30.3507 4.84219 25.4767 9.58795 25.4767H17.2183ZM9.58795 26.2942C5.38747 26.2942 1.87056 30.6628 1.87056 36.213C1.87056 36.2157 1.87055 36.2184 1.8705 36.2211L1.77524 41.3884H24.8403L24.9357 36.2095C24.9342 30.661 21.4179 26.2943 17.2183 26.2942H9.58795Z" fill="url(#paint12_linear_86_325)" stroke="url(#paint13_linear_86_325)" stroke-linecap="round" stroke-linejoin="round"/>
<path d="M4.91658 34.2475C4.91658 34.0231 5.08765 33.8412 5.2987 33.8412C5.50974 33.8412 5.68082 34.0231 5.68082 34.2475V41.3935H20.7217V34.2475C20.7217 34.0231 20.8928 33.8412 21.1038 33.8412C21.3148 33.8412 21.4859 34.0231 21.4859 34.2475V41.7997C21.4859 42.024 21.3148 42.2059 21.1038 42.2059H5.2987C5.08766 42.2059 4.91658 42.024 4.91658 41.7997V34.2475Z" fill="url(#paint14_linear_86_325)" stroke="url(#paint15_linear_86_325)" stroke-linecap="round" stroke-linejoin="round"/>
</g>
<defs>
<linearGradient id="paint0_linear_86_325" x1="33.8115" y1="18.5608" x2="47.3682" y2="18.5608" gradientUnits="userSpaceOnUse">
<stop stop-color="#BF5331"/>
<stop offset="1" stop-color="#EF6A5A"/>
</linearGradient>
<linearGradient id="paint1_linear_86_325" x1="33.2068" y1="18.7212" x2="47.6673" y2="18.7212" gradientUnits="userSpaceOnUse">
<stop stop-color="#BF5331"/>
<stop offset="1" stop-color="#EF6A5A"/>
</linearGradient>
<linearGradient id="paint2_linear_86_325" x1="33.2068" y1="18.7212" x2="47.6673" y2="18.7212" gradientUnits="userSpaceOnUse">
<stop stop-color="#BF5331"/>
<stop offset="1" stop-color="#EF6A5A"/>
</linearGradient>
<linearGradient id="paint3_linear_86_325" x1="28.3878" y1="33.8429" x2="52.4887" y2="33.8429" gradientUnits="userSpaceOnUse">
<stop stop-color="#BF5331"/>
<stop offset="1" stop-color="#EF6A5A"/>
</linearGradient>
<linearGradient id="paint4_linear_86_325" x1="28.0855" y1="33.8413" x2="52.7889" y2="33.8413" gradientUnits="userSpaceOnUse">
<stop stop-color="#BF5331"/>
<stop offset="1" stop-color="#EF6A5A"/>
</linearGradient>
<linearGradient id="paint5_linear_86_325" x1="28.0855" y1="33.8413" x2="52.7889" y2="33.8413" gradientUnits="userSpaceOnUse">
<stop stop-color="#BF5331"/>
<stop offset="1" stop-color="#EF6A5A"/>
</linearGradient>
<linearGradient id="paint6_linear_86_325" x1="32.3046" y1="38.0247" x2="48.8739" y2="38.0247" gradientUnits="userSpaceOnUse">
<stop stop-color="#BF5331"/>
<stop offset="1" stop-color="#EF6A5A"/>
</linearGradient>
<linearGradient id="paint7_linear_86_325" x1="32.3046" y1="38.0247" x2="48.8739" y2="38.0247" gradientUnits="userSpaceOnUse">
<stop stop-color="#BF5331"/>
<stop offset="1" stop-color="#EF6A5A"/>
</linearGradient>
<linearGradient id="paint8_linear_86_325" x1="6.42365" y1="18.5608" x2="20.2817" y2="18.5608" gradientUnits="userSpaceOnUse">
<stop stop-color="#BF5331"/>
<stop offset="1" stop-color="#EF6A5A"/>
</linearGradient>
<linearGradient id="paint9_linear_86_325" x1="6.1213" y1="18.7212" x2="20.5818" y2="18.7212" gradientUnits="userSpaceOnUse">
<stop stop-color="#BF5331"/>
<stop offset="1" stop-color="#EF6A5A"/>
</linearGradient>
<linearGradient id="paint10_linear_86_325" x1="6.1213" y1="18.7212" x2="20.5818" y2="18.7212" gradientUnits="userSpaceOnUse">
<stop stop-color="#BF5331"/>
<stop offset="1" stop-color="#EF6A5A"/>
</linearGradient>
<linearGradient id="paint11_linear_86_325" x1="1.30233" y1="33.8429" x2="25.4032" y2="33.8429" gradientUnits="userSpaceOnUse">
<stop stop-color="#BF5331"/>
<stop offset="1" stop-color="#EF6A5A"/>
</linearGradient>
<linearGradient id="paint12_linear_86_325" x1="0.999985" y1="33.8413" x2="25.7034" y2="33.8413" gradientUnits="userSpaceOnUse">
<stop stop-color="#BF5331"/>
<stop offset="1" stop-color="#EF6A5A"/>
</linearGradient>
<linearGradient id="paint13_linear_86_325" x1="0.999985" y1="33.8413" x2="25.7034" y2="33.8413" gradientUnits="userSpaceOnUse">
<stop stop-color="#BF5331"/>
<stop offset="1" stop-color="#EF6A5A"/>
</linearGradient>
<linearGradient id="paint14_linear_86_325" x1="4.91658" y1="38.0236" x2="21.4859" y2="38.0236" gradientUnits="userSpaceOnUse">
<stop stop-color="#BF5331"/>
<stop offset="1" stop-color="#EF6A5A"/>
</linearGradient>
<linearGradient id="paint15_linear_86_325" x1="4.91658" y1="38.0236" x2="21.4859" y2="38.0236" gradientUnits="userSpaceOnUse">
<stop stop-color="#BF5331"/>
<stop offset="1" stop-color="#EF6A5A"/>
</linearGradient>
<clipPath id="clip0_86_325">
<rect width="53" height="53" fill="white"/>
</clipPath>
</defs>
</svg>
