<svg width="78" height="79" viewBox="0 0 78 79" fill="none" xmlns="http://www.w3.org/2000/svg">
<path d="M57.7945 38.6923V38.6673C56.062 40.1518 54.4345 41.5592 53.1212 42.6964V62.1205C53.1212 63.9614 51.6456 65.4559 49.8281 65.4559H28.8797C27.69 65.4559 26.5101 65.3301 25.3775 65.0991V58.9972V54.3026V53.7146C25.3678 52.529 24.4257 51.5844 23.2551 51.5844H12.0339C11.8053 50.4274 11.6816 49.2418 11.6816 48.0367V17.6913C11.6816 15.8598 13.1567 14.3658 14.9747 14.3658H49.8282C51.6458 14.3658 53.1213 15.8598 53.1213 17.6913V18.0284L53.1073 18.2754C53.1121 18.2707 53.1166 18.2666 53.1213 18.2614V18.2891C54.3394 16.9683 55.6341 15.7155 56.9567 14.5778C57.0046 14.5298 57.0618 14.4912 57.1092 14.4526C55.891 11.6185 53.0734 9.62329 49.8282 9.62329H14.9746C10.5773 9.62329 6.99899 13.2476 6.99899 17.6913V48.0367C6.99899 49.5504 7.16075 51.0735 7.45576 52.5482C9.23568 61.1853 15.8882 67.933 24.435 69.7356C25.8818 70.0346 27.3758 70.1885 28.8797 70.1885H49.8281C54.2253 70.1885 57.7945 66.5737 57.7945 62.1204V47.8401L57.8066 38.6821C57.8023 38.6852 57.7987 38.689 57.7945 38.6923Z" fill="url(#paint0_linear_86_146)"/>
<path d="M45.1763 43.2123C44.6028 42.7736 43.9034 42.1444 43.2073 41.4406C42.5111 40.735 41.8894 40.0277 41.4566 39.4482C41.3656 39.3263 41.2461 39.1602 41.1281 38.9724C41.1146 38.9484 41.103 38.9328 41.0895 38.9075L41.0886 38.9084C41.0877 38.9065 41.0863 38.9051 41.0853 38.9032C41.085 38.9036 41.0845 38.9041 41.0836 38.9055C41.0812 38.9011 41.0788 38.898 41.0766 38.8937C38.1906 41.7685 35.063 43.5773 32.6725 44.6388C32.4443 46.7776 31.9332 48.8792 31.4052 50.6292C31.3879 50.6841 31.3712 50.7449 31.3541 50.7991C31.3471 50.8231 31.3396 50.8439 31.3327 50.8673C31.0013 51.9066 30.6667 52.7962 30.3902 53.4514C30.1918 53.4504 29.9849 53.521 29.8238 53.6843C29.551 53.9606 29.518 54.3653 29.7159 54.6412C29.7276 54.6587 29.7364 54.6774 29.7471 54.6948C29.7499 54.6996 29.7504 54.7041 29.7531 54.7089L29.754 54.7076C29.7554 54.7089 29.7559 54.7108 29.7573 54.7127L29.7591 54.7108C29.7624 54.7146 29.7633 54.7188 29.7665 54.7227L30.8493 53.6265C30.8404 53.6171 30.8307 53.609 30.8219 53.6006L35.9911 48.1563C35.7019 47.5697 35.8353 46.7931 36.3693 46.2529C37.0205 45.5939 38.0196 45.5375 38.6005 46.1258C39.1819 46.7141 39.1262 47.7252 38.4746 48.3842C37.9411 48.9246 37.1744 49.0595 36.5943 48.7673L33.416 51.8583L30.4408 54.735L30.4589 54.7336L30.4454 54.7473C30.4562 54.743 30.4677 54.7379 30.4794 54.7327L30.4957 54.7322L30.1509 55.0819L30.1492 55.0829V55.0833L30.136 55.097C30.4033 55.3672 30.8619 55.3403 31.1608 55.0386C31.3496 54.8474 31.4286 54.5937 31.3969 54.3641C33.2907 53.6318 36.6363 52.5017 40.0692 52.1264C41.0098 49.9594 42.5471 47.1956 44.8953 44.5441C45.1556 44.2523 45.4206 43.96 45.7016 43.671C45.7156 43.6579 45.7267 43.6428 45.7411 43.6296C45.7411 43.6296 45.7407 43.6291 45.7402 43.6291C45.7416 43.6279 45.743 43.6263 45.7445 43.6249C45.7435 43.6239 45.7431 43.6236 45.7422 43.6231C45.7455 43.6198 45.7477 43.617 45.751 43.6132C45.5188 43.474 45.3185 43.322 45.1763 43.2123Z" fill="url(#paint1_linear_86_146)"/>
<path d="M69.9861 14.4257L69.9196 14.3578C69.2413 13.6881 68.341 13.3341 67.3158 13.3341C66.7483 13.3341 66.1325 13.4413 65.4848 13.6523C63.797 14.202 61.7582 15.5016 59.4238 17.512C57.8089 18.9029 56.2549 20.4682 54.8077 22.1613C54.5308 22.4796 42.7387 36.458 42.2847 36.9786C41.4836 37.8399 42.2904 38.9225 42.5552 39.2779C42.8824 39.7161 43.349 40.2479 43.8695 40.7746C44.39 41.3017 44.9157 41.7739 45.3488 42.1047C45.6346 42.3236 46.1676 42.7303 46.7647 42.7299C47.0874 42.7303 47.375 42.6127 47.612 42.3873C48.014 42.0272 62.2756 29.7249 62.2756 29.7249C63.95 28.2582 65.496 26.6847 66.8712 25.0501C68.858 22.6882 70.141 20.6242 70.6848 18.916C71.4291 16.5759 70.7157 15.1822 69.9861 14.4257ZM50.5155 36.512L46.623 39.9791C46.3878 39.7862 46.0375 39.4779 45.5941 39.0293C45.1517 38.5818 44.8468 38.2264 44.6558 37.9883L48.0864 34.0519L50.3617 36.3554L50.5155 36.512Z" fill="url(#paint2_linear_86_146)"/>
<defs>
<linearGradient id="paint0_linear_86_146" x1="6.99899" y1="39.9059" x2="57.8066" y2="39.9059" gradientUnits="userSpaceOnUse">
<stop stop-color="#BF5331"/>
<stop offset="1" stop-color="#EF6A5A"/>
</linearGradient>
<linearGradient id="paint1_linear_86_146" x1="29.5894" y1="47.0886" x2="45.751" y2="47.0886" gradientUnits="userSpaceOnUse">
<stop stop-color="#BF5331"/>
<stop offset="1" stop-color="#EF6A5A"/>
</linearGradient>
<linearGradient id="paint2_linear_86_146" x1="41.9391" y1="28.032" x2="71" y2="28.032" gradientUnits="userSpaceOnUse">
<stop stop-color="#BF5331"/>
<stop offset="1" stop-color="#EF6A5A"/>
</linearGradient>
</defs>
</svg>
