<svg width="50" height="29" viewBox="0 0 50 29" fill="none" xmlns="http://www.w3.org/2000/svg">
<g clip-path="url(#clip0_1_815)">
<path d="M26.7002 0.16176L49.088 7.08306C49.3845 7.17426 49.6066 7.30837 49.7592 7.47378L49.8091 7.53727C49.9863 7.7599 50.0391 8.00846 49.9726 8.27491C49.9197 8.48234 49.7925 8.67815 49.59 8.8525C49.3013 9.10553 48.8081 9.35946 48.1417 9.56511L27.6493 15.9017C26.9252 16.1243 26.0935 16.2718 25.339 16.3273C24.5454 16.3881 23.8027 16.3478 23.3027 16.1931L0.911952 9.27005C0.618393 9.17885 0.396267 9.04742 0.243616 8.88201C0.0244248 8.64149 -0.0450509 8.36968 0.0273604 8.0782C0.080201 7.87256 0.20741 7.67764 0.40703 7.50061C0.698633 7.24757 1.19181 6.99633 1.85721 6.79068L22.3506 0.455028C23.0747 0.232395 23.9065 0.0821847 24.6609 0.0267499C25.4545 -0.0340495 26.2001 0.00618544 26.6992 0.160866L26.7002 0.16176ZM47.9861 8.17298L26.2256 1.44391C25.9232 1.35003 25.3909 1.33215 24.7832 1.37775C24.1345 1.42603 23.4299 1.55031 22.8281 1.73807L2.33572 8.07373C2.21633 8.1095 2.11065 8.14437 2.01378 8.18013L23.7744 14.9092C24.0797 15.0031 24.609 15.021 25.2167 14.9754C25.8655 14.9271 26.57 14.8028 27.1718 14.6177L47.6642 8.28117C47.7836 8.24361 47.8893 8.20785 47.9861 8.17208V8.17298Z" fill="url(#paint0_linear_1_815)"/>
<path d="M38.8692 11.4857C38.8692 11.1102 39.2019 10.8062 39.6129 10.8062C40.0239 10.8062 40.3566 11.1102 40.3566 11.4857V20.645C40.3566 20.9132 40.1844 21.1439 39.9378 21.2557C34.7476 23.9952 29.6387 25.3668 24.5376 25.3668C19.4366 25.3668 14.3188 23.9881 9.16296 21.228C8.93007 21.101 8.79699 20.8757 8.79699 20.645H8.79406V11.222C8.79406 10.8465 9.12676 10.5451 9.53774 10.5451C9.94872 10.5451 10.2814 10.8465 10.2814 11.222V20.2578C15.0743 22.7596 19.8035 24.0113 24.5386 24.0113C29.2737 24.0113 34.0274 22.7569 38.8702 20.2525V11.4857H38.8692Z" fill="url(#paint1_linear_1_815)"/>
<path d="M11.5995 12.0911C11.5995 11.7155 11.9322 11.4115 12.3432 11.4115C12.7542 11.4115 13.0869 11.7155 13.0869 12.0911V24.3761C13.0869 24.7516 12.7542 25.0556 12.3432 25.0556C11.9322 25.0556 11.5995 24.7516 11.5995 24.3761V12.0911Z" fill="url(#paint2_linear_1_815)"/>
<path d="M11.5946 23.6966H13.0927C13.4254 23.6966 13.7053 23.8968 13.8032 24.1704L15.2621 27.5716C15.4119 27.9185 15.223 28.312 14.8404 28.4488C14.813 28.4586 14.7846 28.4666 14.7572 28.4747C13.9499 28.7 13.1456 28.8144 12.3442 28.8144C11.5428 28.8144 10.7159 28.6982 9.89784 28.4648C9.50643 28.3558 9.28724 27.9785 9.40955 27.6208L9.42619 27.5725L10.9047 24.1311C11.0183 23.862 11.2991 23.7001 11.5956 23.6975L11.5946 23.6966ZM12.5868 25.0547H12.0986L11.1112 27.3481C11.5222 27.4187 11.9322 27.4545 12.3432 27.4545C12.7542 27.4545 13.1642 27.4187 13.5752 27.3481L12.5878 25.0547H12.5868Z" fill="url(#paint3_linear_1_815)"/>
<path d="M12.582 12.7321C12.1935 12.851 11.7717 12.6615 11.6416 12.3065C11.5114 11.9542 11.7189 11.5689 12.1044 11.45L24.7607 7.53644C25.1492 7.41485 25.571 7.6044 25.7011 7.95936C25.8313 8.31432 25.6238 8.697 25.2383 8.8186L12.581 12.7321H12.582Z" fill="url(#paint4_linear_1_815)"/>
</g>
<defs>
<linearGradient id="paint0_linear_1_815" x1="-0.000226974" y1="8.177" x2="50.0003" y2="8.177" gradientUnits="userSpaceOnUse">
<stop stop-color="#BF5331"/>
<stop offset="1" stop-color="#EF6A5A"/>
</linearGradient>
<linearGradient id="paint1_linear_1_815" x1="8.79406" y1="17.956" x2="40.3566" y2="17.956" gradientUnits="userSpaceOnUse">
<stop stop-color="#BF5331"/>
<stop offset="1" stop-color="#EF6A5A"/>
</linearGradient>
<linearGradient id="paint2_linear_1_815" x1="11.5995" y1="18.2336" x2="13.0869" y2="18.2336" gradientUnits="userSpaceOnUse">
<stop stop-color="#BF5331"/>
<stop offset="1" stop-color="#EF6A5A"/>
</linearGradient>
<linearGradient id="paint3_linear_1_815" x1="9.37565" y1="26.2555" x2="15.3135" y2="26.2555" gradientUnits="userSpaceOnUse">
<stop stop-color="#BF5331"/>
<stop offset="1" stop-color="#EF6A5A"/>
</linearGradient>
<linearGradient id="paint4_linear_1_815" x1="11.6027" y1="10.1336" x2="25.74" y2="10.1336" gradientUnits="userSpaceOnUse">
<stop stop-color="#BF5331"/>
<stop offset="1" stop-color="#EF6A5A"/>
</linearGradient>
<clipPath id="clip0_1_815">
<rect width="50" height="28.8136" fill="white"/>
</clipPath>
</defs>
</svg>
