<svg width="53" height="53" viewBox="0 0 53 53" fill="none" xmlns="http://www.w3.org/2000/svg">
<g clip-path="url(#clip0_1_1533)">
<path d="M10.4391 10.4391C1.58052 19.2977 1.58052 33.7023 10.4391 42.5609C14.8684 46.9902 20.6795 49.2048 26.5 49.2048C32.3205 49.2048 38.1316 46.9902 42.5609 42.5609C51.4195 33.7023 51.4195 19.2977 42.5609 10.4391C33.7023 1.58052 19.2977 1.58052 10.4391 10.4391ZM41.2264 41.2264C33.1061 49.3468 19.8939 49.3468 11.783 41.2264C3.66267 33.1061 3.66267 19.8939 11.783 11.783C15.8432 7.72284 21.1716 5.69749 26.5095 5.69749C31.8473 5.69749 37.1757 7.73231 41.2359 11.783C49.3562 19.9034 49.3562 33.1155 41.2359 41.2264H41.2264Z" fill="url(#paint0_linear_1_1533)"/>
<path d="M26.5 0C19.4207 0 12.7673 2.75411 7.76071 7.76071C2.75411 12.7673 0 19.4207 0 26.5C0 33.5793 2.75411 40.2327 7.76071 45.2393C12.7673 50.2459 19.4207 53 26.5 53C33.5793 53 40.2327 50.2459 45.2393 45.2393C50.2459 40.2327 53 33.5793 53 26.5C53 19.4207 50.2459 12.7673 45.2393 7.76071C40.2327 2.75411 33.5793 0 26.5 0ZM43.8954 43.8954C39.2484 48.5423 33.0682 51.1071 26.5 51.1071C19.9318 51.1071 13.7516 48.5518 9.10464 43.8954C4.45768 39.2484 1.89286 33.0682 1.89286 26.5C1.89286 19.9318 4.44821 13.7516 9.10464 9.10464C13.7611 4.45768 19.9318 1.89286 26.5 1.89286C33.0682 1.89286 39.2484 4.44821 43.8954 9.10464C48.5423 13.7516 51.1071 19.9318 51.1071 26.5C51.1071 33.0682 48.5518 39.2484 43.8954 43.8954Z" fill="url(#paint1_linear_1_1533)"/>
<path d="M38.6995 12.9943L23.3105 23.036C23.3105 23.036 23.2916 23.0549 23.2821 23.0643C23.2348 23.0927 23.197 23.1211 23.1591 23.1495C23.1307 23.1779 23.1213 23.2158 23.0929 23.2536C23.0739 23.2726 23.055 23.282 23.0361 23.3104L12.9945 38.6993C12.7484 39.0779 12.8052 39.5701 13.1175 39.8824C13.2973 40.0622 13.5434 40.1568 13.7895 40.1568C13.9693 40.1568 14.1491 40.1095 14.31 40.0054L29.6989 29.9638C29.6989 29.9638 29.7368 29.9165 29.7652 29.8976C29.7936 29.8786 29.822 29.8692 29.8504 29.8408C29.8788 29.8124 29.8882 29.784 29.9072 29.7556C29.9261 29.7272 29.9545 29.7177 29.9734 29.6893L40.015 14.3004C40.2611 13.9218 40.2043 13.4297 39.892 13.1174C39.5797 12.7956 39.078 12.7483 38.7089 12.9943H38.6995ZM23.9825 25.3168L27.683 29.0174L26.0173 30.1058C26.0173 30.1058 25.9889 30.1247 25.97 30.1342C25.9605 30.1342 25.9511 30.1531 25.9416 30.1626L17.0357 35.9736L23.9825 25.3263V25.3168ZM30.1627 25.9415C30.1627 25.9415 30.1438 25.9604 30.1343 25.9699C30.1248 25.9888 30.1154 25.9983 30.1059 26.0172L29.0175 27.6829L25.317 23.9824L35.9643 17.0356L30.1532 25.9415H30.1627Z" fill="url(#paint2_linear_1_1533)"/>
<path d="M27.3707 37.9707C27.3518 37.9139 27.3234 37.8571 27.2856 37.8098C27.2572 37.753 27.2098 37.7057 27.172 37.6584C26.8218 37.3082 26.1782 37.3082 25.8281 37.6584C25.7902 37.7057 25.7523 37.753 25.7145 37.8098C25.6766 37.8571 25.6482 37.9139 25.6293 37.9707C25.6009 38.0275 25.582 38.0843 25.5725 38.1505C25.5631 38.2073 25.5536 38.2736 25.5536 38.3303C25.5536 38.5764 25.6577 38.8225 25.8281 39.0023C26.0079 39.1727 26.2539 39.2768 26.5 39.2768C26.7461 39.2768 26.9922 39.1727 27.172 39.0023C27.3423 38.8225 27.4464 38.5764 27.4464 38.3303C27.4464 38.2736 27.437 38.2073 27.4275 38.1505C27.4181 38.0843 27.3991 38.0275 27.3707 37.9707Z" fill="url(#paint3_linear_1_1533)"/>
<path d="M26.5 35.5667C27.0227 35.5667 27.4464 35.143 27.4464 34.6203C27.4464 34.0976 27.0227 33.6738 26.5 33.6738C25.9773 33.6738 25.5536 34.0976 25.5536 34.6203C25.5536 35.143 25.9773 35.5667 26.5 35.5667Z" fill="url(#paint4_linear_1_1533)"/>
<path d="M26.5 19.326C27.0206 19.326 27.4464 18.9001 27.4464 18.3795C27.4464 17.859 27.0206 17.4331 26.5 17.4331C25.9795 17.4331 25.5536 17.8495 25.5536 18.3795C25.5536 18.9095 25.9795 19.326 26.5 19.326Z" fill="url(#paint5_linear_1_1533)"/>
<path d="M25.9795 15.4552C26.0268 15.4931 26.0836 15.5215 26.1404 15.5404C26.1972 15.5688 26.2539 15.5877 26.3107 15.5972C26.377 15.5972 26.4338 15.6161 26.5 15.6161C26.7461 15.6161 26.9922 15.512 27.172 15.3417C27.3423 15.1618 27.4464 14.9158 27.4464 14.6697C27.4464 14.4236 27.3423 14.1776 27.172 13.9977C26.8218 13.6476 26.1877 13.6476 25.8281 13.9977C25.6577 14.1776 25.5536 14.4142 25.5536 14.6697C25.5536 14.9252 25.6577 15.1618 25.8281 15.3417C25.8754 15.3795 25.9227 15.4174 25.9795 15.4552Z" fill="url(#paint6_linear_1_1533)"/>
<path d="M35.387 34.081C35.387 34.081 35.2829 34.0147 35.2261 33.9958C35.1693 33.9674 35.1125 33.9485 35.0463 33.939C34.9327 33.9106 34.8002 33.9106 34.6772 33.939C34.6204 33.939 34.5636 33.9674 34.5068 33.9958C34.45 34.0147 34.3933 34.0431 34.3365 34.081C34.2891 34.1094 34.2418 34.1567 34.1945 34.1946C34.0242 34.3744 33.92 34.6204 33.92 34.8665C33.92 34.9233 33.92 34.9896 33.939 35.0463C33.939 35.1126 33.9674 35.1694 33.9958 35.2262C34.0147 35.2829 34.0431 35.3397 34.0809 35.3871C34.1093 35.4438 34.1567 35.4912 34.1945 35.5385C34.2418 35.5763 34.2891 35.6142 34.3365 35.6521C34.3933 35.6899 34.45 35.7183 34.5068 35.7372C34.5636 35.7656 34.6204 35.7846 34.6772 35.794C34.7434 35.794 34.8002 35.8129 34.8665 35.8129C34.9233 35.8129 34.9895 35.8035 35.0463 35.794C35.1125 35.794 35.1693 35.7656 35.2261 35.7372C35.2829 35.7183 35.3397 35.6899 35.387 35.6521C35.4438 35.6142 35.4911 35.5763 35.5384 35.5385C35.5763 35.4912 35.6141 35.4438 35.652 35.3871C35.6899 35.3397 35.7183 35.2829 35.7372 35.2262C35.7656 35.1694 35.7845 35.1126 35.794 35.0463C35.794 34.9896 35.8129 34.9233 35.8129 34.8665C35.8129 34.6204 35.7088 34.3744 35.5384 34.1946C35.4911 34.1567 35.4438 34.1094 35.387 34.081Z" fill="url(#paint7_linear_1_1533)"/>
<path d="M31.3552 31.3552C30.9861 31.7243 30.9861 32.3206 31.3552 32.6897C31.535 32.8695 31.7811 32.9641 32.0177 32.9641C32.2543 32.9641 32.5098 32.8695 32.6897 32.6897C33.0588 32.3206 33.0588 31.7243 32.6897 31.3552C32.3206 30.9861 31.7243 30.9861 31.3552 31.3552Z" fill="url(#paint8_linear_1_1533)"/>
<path d="M20.9824 21.9287C21.219 21.9287 21.465 21.834 21.6449 21.6447C22.014 21.2756 22.014 20.6794 21.6449 20.3103C21.2758 19.9412 20.6795 19.9412 20.3104 20.3103C19.9413 20.6794 19.9413 21.2756 20.3104 21.6447C20.4902 21.834 20.7363 21.9287 20.9824 21.9287Z" fill="url(#paint9_linear_1_1533)"/>
<path d="M17.7739 19.0043C17.8875 19.0611 18.0105 19.08 18.1336 19.08C18.2566 19.08 18.3796 19.0611 18.4932 19.0043C18.6162 18.957 18.7203 18.8907 18.8055 18.8056C18.9853 18.6257 19.08 18.3797 19.08 18.1336C19.08 18.0106 19.0611 17.8875 19.0043 17.7739C18.957 17.6604 18.8907 17.5563 18.8055 17.4616C18.7203 17.3764 18.6162 17.3102 18.4932 17.2629C18.2661 17.1682 18.0011 17.1682 17.7739 17.2629C17.6603 17.3102 17.5562 17.3764 17.4616 17.4616C17.3764 17.5563 17.3102 17.6604 17.2628 17.7739C17.2155 17.8875 17.1871 18.0106 17.1871 18.1336C17.1871 18.3797 17.2912 18.6257 17.4616 18.8056C17.5562 18.8907 17.6603 18.957 17.7739 19.0043Z" fill="url(#paint10_linear_1_1533)"/>
<path d="M39.2105 26.1403C39.1821 26.0835 39.1537 26.0267 39.1159 25.9699C39.0875 25.9226 39.0496 25.8753 39.0023 25.8279C38.955 25.7901 38.9077 25.7522 38.8603 25.7144C38.8036 25.6765 38.7468 25.6481 38.69 25.6292C38.6332 25.6008 38.5764 25.5819 38.5196 25.5724C38.3303 25.5345 38.1411 25.5535 37.9707 25.6292C37.8571 25.6765 37.753 25.7428 37.6584 25.8279C37.488 26.0078 37.3839 26.2538 37.3839 26.4999C37.3839 26.6229 37.4123 26.746 37.4596 26.8595C37.5069 26.9826 37.5732 27.0772 37.6584 27.1719C37.753 27.257 37.8571 27.3233 37.9707 27.3706C38.0843 27.4179 38.2073 27.4463 38.3303 27.4463C38.3966 27.4463 38.4534 27.4369 38.5196 27.4274C38.5764 27.4179 38.6332 27.399 38.69 27.3706C38.7468 27.3517 38.8036 27.3233 38.8603 27.2854C38.9077 27.2476 38.955 27.2097 39.0023 27.1719C39.0875 27.0772 39.1537 26.9731 39.2105 26.8595C39.2578 26.746 39.2768 26.6229 39.2768 26.4999C39.2768 26.4336 39.2768 26.3769 39.2578 26.3106C39.2484 26.2538 39.2294 26.197 39.2105 26.1403Z" fill="url(#paint11_linear_1_1533)"/>
<path d="M34.6204 27.4463C35.1504 27.4463 35.5668 27.0204 35.5668 26.4999C35.5668 25.9794 35.1504 25.5535 34.6204 25.5535C34.0904 25.5535 33.674 25.9794 33.674 26.4999C33.674 27.0204 34.0998 27.4463 34.6204 27.4463Z" fill="url(#paint12_linear_1_1533)"/>
<path d="M18.3797 27.4463C18.9024 27.4463 19.3261 27.0226 19.3261 26.4999C19.3261 25.9772 18.9024 25.5535 18.3797 25.5535C17.857 25.5535 17.4332 25.9772 17.4332 26.4999C17.4332 27.0226 17.857 27.4463 18.3797 27.4463Z" fill="url(#paint13_linear_1_1533)"/>
<path d="M13.9977 27.172C14.1776 27.3424 14.4236 27.4465 14.6697 27.4465C14.7927 27.4465 14.9158 27.4181 15.0293 27.3708C15.1429 27.3235 15.247 27.2572 15.3417 27.172C15.4268 27.0774 15.4931 26.9733 15.5404 26.8597C15.5877 26.7461 15.6161 26.6231 15.6161 26.5001C15.6161 26.4338 15.6067 26.377 15.5972 26.3108C15.5877 26.254 15.5688 26.1972 15.5404 26.1404C15.5215 26.0836 15.4931 26.0269 15.4552 25.9701C15.4174 25.9227 15.3795 25.8754 15.3417 25.8281C15.247 25.7429 15.1429 25.6767 15.0293 25.6293C14.6792 25.4779 14.2627 25.5631 13.9977 25.8281C13.9504 25.8754 13.9126 25.9227 13.8842 25.9701C13.8463 26.0269 13.8179 26.0836 13.7895 26.1404C13.7706 26.1972 13.7517 26.254 13.7422 26.3108C13.7233 26.377 13.7233 26.4338 13.7233 26.5001C13.7233 26.6231 13.7422 26.7461 13.7895 26.8597C13.8463 26.9733 13.9126 27.0774 13.9977 27.172Z" fill="url(#paint14_linear_1_1533)"/>
</g>
<defs>
<linearGradient id="paint0_linear_1_1533" x1="3.79517" y1="26.5" x2="49.2048" y2="26.5" gradientUnits="userSpaceOnUse">
<stop stop-color="#BF5331"/>
<stop offset="1" stop-color="#EF6A5A"/>
</linearGradient>
<linearGradient id="paint1_linear_1_1533" x1="0" y1="26.5" x2="53" y2="26.5" gradientUnits="userSpaceOnUse">
<stop stop-color="#BF5331"/>
<stop offset="1" stop-color="#EF6A5A"/>
</linearGradient>
<linearGradient id="paint2_linear_1_1533" x1="12.8412" y1="26.4975" x2="40.1683" y2="26.4975" gradientUnits="userSpaceOnUse">
<stop stop-color="#BF5331"/>
<stop offset="1" stop-color="#EF6A5A"/>
</linearGradient>
<linearGradient id="paint3_linear_1_1533" x1="25.5536" y1="38.3363" x2="27.4464" y2="38.3363" gradientUnits="userSpaceOnUse">
<stop stop-color="#BF5331"/>
<stop offset="1" stop-color="#EF6A5A"/>
</linearGradient>
<linearGradient id="paint4_linear_1_1533" x1="25.5536" y1="34.6203" x2="27.4464" y2="34.6203" gradientUnits="userSpaceOnUse">
<stop stop-color="#BF5331"/>
<stop offset="1" stop-color="#EF6A5A"/>
</linearGradient>
<linearGradient id="paint5_linear_1_1533" x1="25.5536" y1="18.3795" x2="27.4464" y2="18.3795" gradientUnits="userSpaceOnUse">
<stop stop-color="#BF5331"/>
<stop offset="1" stop-color="#EF6A5A"/>
</linearGradient>
<linearGradient id="paint6_linear_1_1533" x1="25.5536" y1="14.6756" x2="27.4464" y2="14.6756" gradientUnits="userSpaceOnUse">
<stop stop-color="#BF5331"/>
<stop offset="1" stop-color="#EF6A5A"/>
</linearGradient>
<linearGradient id="paint7_linear_1_1533" x1="33.92" y1="34.8653" x2="35.8129" y2="34.8653" gradientUnits="userSpaceOnUse">
<stop stop-color="#BF5331"/>
<stop offset="1" stop-color="#EF6A5A"/>
</linearGradient>
<linearGradient id="paint8_linear_1_1533" x1="31.0784" y1="32.0212" x2="32.9665" y2="32.0212" gradientUnits="userSpaceOnUse">
<stop stop-color="#BF5331"/>
<stop offset="1" stop-color="#EF6A5A"/>
</linearGradient>
<linearGradient id="paint9_linear_1_1533" x1="20.0336" y1="20.9811" x2="21.9217" y2="20.9811" gradientUnits="userSpaceOnUse">
<stop stop-color="#BF5331"/>
<stop offset="1" stop-color="#EF6A5A"/>
</linearGradient>
<linearGradient id="paint10_linear_1_1533" x1="17.1871" y1="18.136" x2="19.08" y2="18.136" gradientUnits="userSpaceOnUse">
<stop stop-color="#BF5331"/>
<stop offset="1" stop-color="#EF6A5A"/>
</linearGradient>
<linearGradient id="paint11_linear_1_1533" x1="37.3839" y1="26.4999" x2="39.2768" y2="26.4999" gradientUnits="userSpaceOnUse">
<stop stop-color="#BF5331"/>
<stop offset="1" stop-color="#EF6A5A"/>
</linearGradient>
<linearGradient id="paint12_linear_1_1533" x1="33.674" y1="26.4999" x2="35.5668" y2="26.4999" gradientUnits="userSpaceOnUse">
<stop stop-color="#BF5331"/>
<stop offset="1" stop-color="#EF6A5A"/>
</linearGradient>
<linearGradient id="paint13_linear_1_1533" x1="17.4332" y1="26.4999" x2="19.3261" y2="26.4999" gradientUnits="userSpaceOnUse">
<stop stop-color="#BF5331"/>
<stop offset="1" stop-color="#EF6A5A"/>
</linearGradient>
<linearGradient id="paint14_linear_1_1533" x1="13.7233" y1="26.5006" x2="15.6161" y2="26.5006" gradientUnits="userSpaceOnUse">
<stop stop-color="#BF5331"/>
<stop offset="1" stop-color="#EF6A5A"/>
</linearGradient>
<clipPath id="clip0_1_1533">
<rect width="53" height="53" fill="white"/>
</clipPath>
</defs>
</svg>
