<svg width="33" height="33" viewBox="0 0 33 33" fill="none" xmlns="http://www.w3.org/2000/svg">
<g clip-path="url(#clip0_86_108)">
<path d="M11.1036 27.0684C10.6965 27.4755 10.6965 28.1356 11.1016 28.5405L11.306 28.7449C11.7129 29.1518 12.373 29.1518 12.7799 28.7449L13.01 28.5128L11.3355 26.8385L11.1036 27.0684Z" fill="#8A8A8A"/>
<path d="M8.25857 24.8415C7.85168 25.2464 7.85168 25.9085 8.25857 26.3156L8.46102 26.518C8.87036 26.9272 9.53055 26.9252 9.93538 26.518C9.93538 26.518 10.1348 26.3183 10.4669 25.9863L10.4676 25.9852C10.4704 25.9825 10.4724 25.9807 10.4752 25.978L8.79843 24.3017L8.25857 24.8415Z" fill="#8A8A8A"/>
<path d="M6.28817 21.7913L6.05601 22.0211C5.64918 22.428 5.64918 23.0881 6.05401 23.493L6.25846 23.6977C6.6658 24.1048 7.32567 24.1048 7.73282 23.6977L7.96241 23.4658L6.28817 21.7913Z" fill="#8A8A8A"/>
<path d="M25.9165 3.48111L21.6331 7.81281L18.4633 8.85463L17.4532 9.18747H17.4512L16.4411 9.52082H16.4388L9.001 11.967C8.87435 12.0114 8.75853 12.0808 8.6614 12.1695C8.611 12.2137 8.56672 12.2624 8.52843 12.317C8.48641 12.3699 8.4527 12.4268 8.42318 12.488C8.31993 12.7073 8.29679 12.954 8.35776 13.1861C8.36433 13.2133 8.37233 13.243 8.3829 13.2703L8.49466 13.5844C8.54551 13.7239 8.62356 13.8503 8.73081 13.958V13.9601C8.77967 14.0084 8.83433 14.0527 8.88918 14.0885C8.97355 14.1433 9.06616 14.1877 9.16136 14.2151C9.1845 14.2234 9.2097 14.23 9.2349 14.234C9.3069 14.2512 9.38044 14.2594 9.45643 14.2594C9.4922 14.2594 9.52591 14.2572 9.56194 14.2531C9.59345 14.2511 9.62317 14.2468 9.65488 14.2405C9.66944 14.2385 9.68633 14.234 9.70122 14.23C9.73493 14.2234 9.76664 14.2128 9.79809 14.2025L13.0709 13.4918H13.0732C13.0963 13.4855 13.1172 13.4791 13.1406 13.4771C13.1489 13.4749 13.1575 13.4729 13.166 13.4729L13.1721 13.4706L18.8878 12.232L21.4571 14.8005L21.8829 15.2285L21.8941 15.2399L21.8753 15.2359L26.616 19.9744C27.5544 18.9875 28.1765 17.7644 28.4252 16.4229L28.6997 14.9113L33 10.5646L25.9165 3.48111Z" fill="#8A8A8A"/>
<path d="M25.7239 20.8726L18.486 13.6131L13.434 14.7085L13.3431 14.7297H13.3325L13.2925 14.738L10.1313 15.4256C9.98372 15.4697 9.83194 15.4994 9.67809 15.5119C9.60409 15.5205 9.53055 15.5245 9.4565 15.5245C8.84496 15.5245 8.26914 15.2843 7.83711 14.8517C7.6007 14.6156 7.42171 14.3351 7.30338 14.0083L7.18955 13.69C6.9891 13.1185 7.02081 12.5007 7.28217 11.9417C7.54379 11.3954 8.00353 10.98 8.57504 10.7755L8.58986 10.769L8.60649 10.765L11.8163 9.70902L14.4111 8.8643L14.3978 8.86005L14.4144 8.85451L11.2471 7.81281L7.16287 3.56368L7.09087 3.4884V3.48859L7.08353 3.48105L0 10.5646L4.18036 14.9112L4.45635 16.4228C4.71365 17.8255 5.38435 19.0992 6.39446 20.1092L7.15778 20.8706L8.83659 22.5492L9.69265 23.4074L11.3691 25.084L12.2295 25.9423L13.9062 27.6188L15.5067 29.2193C15.7048 29.4177 15.9642 29.519 16.2258 29.519C16.2976 29.519 16.3713 29.5104 16.441 29.4957C16.6263 29.4555 16.8016 29.3628 16.9471 29.2193L17.1813 28.9852C17.5796 28.5868 17.5796 27.9413 17.1813 27.543L12.8393 23.201C12.5754 22.9371 12.6071 22.488 12.9339 22.2667C13.0331 22.1993 13.145 22.1697 13.2587 22.1697C13.4254 22.1697 13.5921 22.2372 13.7165 22.3596L13.9063 22.5492L14.7643 23.4075L17.2992 25.9423L18.976 27.6189L20.1019 28.7451C20.3043 28.9495 20.5722 29.0507 20.8381 29.0507C21.1057 29.0507 21.3714 28.9495 21.5737 28.7451L21.7785 28.5406C22.1856 28.1357 22.1856 27.4757 21.7785 27.0685L18.976 24.2661L18.1154 23.4075L16.4412 21.7312L15.5806 20.8727L15.3908 20.6828C15.1546 20.4447 15.14 20.059 15.3613 19.8248L15.3761 19.8097C15.49 19.6939 15.644 19.6307 15.8062 19.6307C15.8082 19.6307 15.8082 19.6307 15.8104 19.6307C15.9708 19.6307 16.1224 19.6939 16.2364 19.8077C16.2933 19.8645 16.3631 19.9343 16.4411 20.0121C16.6581 20.2316 16.9555 20.5267 17.2992 20.8726C17.7865 21.3598 18.3684 21.9442 18.9737 22.5492L19.834 23.4094C20.4309 24.0064 21.015 24.5885 21.5108 25.084C22.3521 25.9256 22.9446 26.5181 22.9446 26.5181C23.1493 26.7228 23.4149 26.824 23.6826 26.824C23.9485 26.824 24.2143 26.7228 24.4188 26.5181L24.6232 26.3157C25.0281 25.9085 25.0281 25.2464 24.6232 24.8416L23.1871 23.4075L17.7147 17.9396C17.5797 17.8172 17.5757 17.6103 17.7021 17.4818L17.9111 17.2729C18.0289 17.155 18.185 17.0959 18.3411 17.0959C18.4972 17.0959 18.6513 17.155 18.7691 17.2729L24.0457 22.5492L24.4462 22.9497C24.6908 23.1944 25.0197 23.3233 25.3446 23.3233C25.5765 23.3233 25.8066 23.2579 26.0005 23.1209C26.3504 22.8762 26.5402 22.4691 26.5002 22.0348C26.4748 21.7458 26.3315 21.4798 26.1268 21.2755L25.7239 20.8726Z" fill="#8A8A8A"/>
</g>
<defs>
<clipPath id="clip0_86_108">
<rect width="33" height="33" fill="white"/>
</clipPath>
</defs>
</svg>
