<svg width="79" height="79" viewBox="0 0 79 79" fill="none" xmlns="http://www.w3.org/2000/svg">
<g clip-path="url(#clip0_86_189)">
<path d="M71.5594 15.9473L62.0413 19.012L69.4843 42.1278L79.0024 39.0631L71.5594 15.9473Z" fill="url(#paint0_linear_86_189)"/>
<path d="M58.9721 22.0284C58.5274 20.6783 57.2742 19.8158 55.9187 19.8158C55.6185 19.8158 55.3136 19.8587 55.0135 19.9448L47.7561 22.0833L46.0883 22.2538L44.563 21.9104C43.5022 21.0908 42.19 20.6356 40.7972 20.6356C40.3631 20.6356 39.9239 20.6785 39.5008 20.7748C39.4796 20.7748 39.4634 20.7802 39.4417 20.7856L34.4391 21.9102L32.2965 22.3924L23.9879 19.9448C23.6877 19.8587 23.3828 19.8158 23.0827 19.8158C21.7278 19.8158 20.4686 20.6783 20.0293 22.0284L14.1853 39.8605C13.9231 40.6693 13.987 41.5584 14.3782 42.3191C14.7639 43.0798 15.4444 43.6584 16.2587 43.9211L19.4513 44.9494L19.6008 44.9975C19.7003 45.0386 19.8028 45.0771 19.9011 45.1101C20.0402 45.5653 20.2385 46.0048 20.5062 46.4115C20.6781 46.6743 20.8818 46.9256 21.112 47.1566C21.1868 47.2367 21.2723 47.3167 21.353 47.3922C21.8773 47.8526 22.4886 48.1902 23.1365 48.4041C23.1757 48.5372 23.2522 48.6602 23.3035 48.7904C23.3445 48.8958 23.3891 48.9989 23.4372 49.1009C23.5536 49.3468 23.6904 49.58 23.8501 49.8079C23.9291 49.9199 24.0122 50.0291 24.1003 50.1347C24.1859 50.2371 24.2462 50.3535 24.3419 50.4504C24.9151 51.029 25.6059 51.4521 26.3666 51.6931C26.592 52.4429 26.9933 53.1506 27.5773 53.7449C28.1343 54.318 28.8256 54.7358 29.5755 54.9768C29.9196 55.0901 30.2752 55.163 30.6361 55.1975L35.3494 60.666C36.3511 61.989 37.8623 62.8352 39.5009 63.0172C39.7203 63.0444 39.9402 63.0546 40.1598 63.0546C41.4242 63.0546 42.6346 62.6693 43.6682 61.9297C44.4932 61.3403 45.1309 60.5749 45.554 59.7225C46.5285 59.5941 47.4502 59.2302 48.259 58.6516C49.0734 58.0674 49.7213 57.3123 50.1551 56.4389C51.125 56.3106 52.0459 55.9466 52.8547 55.3734C53.6853 54.779 54.3176 54.0125 54.7407 53.1614C55.7152 53.0324 56.6368 52.6684 57.4457 52.0896C59.7493 50.4454 60.5527 47.4667 59.551 44.9492L62.7436 43.921C63.5578 43.6582 64.2323 43.0794 64.6234 42.3189C65.0091 41.5582 65.0792 40.6693 64.8163 39.8603L58.9721 22.0284ZM39.1028 48.6122L39.0883 48.5917L37.3633 49.8194L37.3622 49.8201L37.3417 49.8346L42.9072 57.6235C42.7577 58.2823 42.3877 58.8929 41.7987 59.316C41.3003 59.6699 40.727 59.8409 40.1593 59.8409C39.2812 59.8409 38.4131 59.4287 37.8618 58.6573L36.845 57.4777L34.1021 54.1916C34.1616 54.1475 34.2214 54.1043 34.278 54.056C34.3425 54.0126 34.3956 53.9595 34.4547 53.9058L35.108 53.37C36.0843 52.5756 36.5383 51.2978 36.2664 50.0696C36.1808 49.685 36.0549 49.3288 35.8686 49.0793C35.3172 48.3348 34.4655 47.9438 33.6031 47.9438C33.0189 47.9438 32.4301 48.1257 31.9209 48.5007L31.5827 48.7497L31.2971 48.9353C32.2633 48.1313 32.6435 46.7799 32.1252 45.624C31.4332 44.0804 29.686 43.5505 28.3082 44.2195C28.1612 44.284 28.0179 44.3569 27.8779 44.4419C28.4414 43.4926 28.424 42.2618 27.7242 41.3198C26.7941 40.0693 25.0263 39.8088 23.7758 40.7381L21.6712 42.2884L21.1328 42.116L17.2447 40.864L17.2387 40.8622L23.0827 23.0301L31.6698 25.5532L32.1891 25.7087L36.2203 24.8016L39.1849 24.1537C37.8541 26.0028 35.2487 29.2685 33.9299 30.9982C30.85 35.0376 31.6698 39.1446 35.9544 37.9228C40.8655 36.5221 41.7497 30.4955 45.1792 30.2615L46.4812 30.2103L56.2349 45.5388C56.3265 45.6672 56.4068 45.8009 56.4711 45.9347C57.0709 47.1564 56.7225 48.6614 55.5814 49.4758C55.0885 49.8242 54.5262 49.9953 53.9638 50.0007L53.4551 49.2882L48.2753 42.0296L46.5551 43.2629L46.5545 43.2634L46.5339 43.2779L52.0193 50.9595L52.094 51.0662C51.9493 51.7201 51.5799 52.3308 50.9857 52.7539C50.7126 52.9523 50.4179 53.0915 50.107 53.1715C49.866 53.2414 49.6194 53.2788 49.3735 53.2788L43.6844 45.3132L41.9697 46.5337L41.9589 46.5414L41.9384 46.5559L47.4985 54.345C47.3537 55.0038 46.9843 55.6142 46.3948 56.0374C45.9024 56.3859 45.3395 56.557 44.7771 56.557L39.1254 48.6431L39.1028 48.6122Z" fill="url(#paint1_linear_86_189)"/>
<path d="M16.954 19.0337H16.9534L16.9612 19.0101L7.44359 15.9453L0 39.0596L9.51811 42.1246L16.9366 19.086L16.954 19.0337Z" fill="url(#paint2_linear_86_189)"/>
</g>
<defs>
<linearGradient id="paint0_linear_86_189" x1="65.7628" y1="30.5699" x2="75.2809" y2="27.5052" gradientUnits="userSpaceOnUse">
<stop stop-color="#BF5331"/>
<stop offset="1" stop-color="#EF6A5A"/>
</linearGradient>
<linearGradient id="paint1_linear_86_189" x1="14.0273" y1="41.4352" x2="64.9731" y2="41.4352" gradientUnits="userSpaceOnUse">
<stop stop-color="#BF5331"/>
<stop offset="1" stop-color="#EF6A5A"/>
</linearGradient>
<linearGradient id="paint2_linear_86_189" x1="0" y1="29.0349" x2="16.9612" y2="29.0349" gradientUnits="userSpaceOnUse">
<stop stop-color="#BF5331"/>
<stop offset="1" stop-color="#EF6A5A"/>
</linearGradient>
<clipPath id="clip0_86_189">
<rect width="79" height="79" fill="white"/>
</clipPath>
</defs>
</svg>
