<svg width="53" height="53" viewBox="0 0 53 53" fill="none" xmlns="http://www.w3.org/2000/svg">
<path d="M16.2683 45.8725C15.7275 45.8161 15.4618 45.4371 15.4392 45.0872C15.4108 44.6535 15.7206 44.2797 16.1927 44.1777L16.2299 44.1697L20.2295 44.0962L20.769 41.1448L4.66616 41.1995C2.68682 41.1659 1.18155 39.886 1.00149 38.0875L1.00023 38.0727L1.00338 11.087L1.00464 11.0722C1.15637 9.61672 2.24928 8.45305 3.78918 8.10714L3.82884 8.09802H3.86976C9.08314 8.0302 14.6044 8 21.7706 8C25.1186 8 28.5101 8.00627 31.7894 8.01254C35.0751 8.0188 38.4691 8.02507 41.807 8.02507C44.5815 8.02507 47.0537 8.02052 49.3636 8.0114H49.3944L49.4247 8.01596C50.8871 8.23821 51.8214 8.86734 52.281 9.93813C52.6744 10.8562 52.6625 11.9395 52.6499 12.9864C52.5706 19.9069 52.5768 26.955 52.5838 33.7718C52.585 35.1663 52.5863 36.5551 52.5869 37.9433C52.5894 38.7189 52.1645 39.5686 51.4499 40.2171C50.8021 40.8052 49.995 41.1426 49.237 41.1426H32.7571L33.3275 44.1441L37.441 44.156L37.4907 44.1697C37.9025 44.2814 38.1631 44.6119 38.1543 45.012C38.1461 45.4092 37.8672 45.7403 37.4611 45.8354L37.4171 45.8457L16.2891 45.8742L16.2683 45.8719V45.8725ZM31.3947 44.1441L30.7412 41.1528L22.7131 41.1967L22.1238 44.1367L31.3941 44.1441H31.3947ZM41.389 39.3543C42.2112 39.3543 43.0585 39.3748 43.9557 39.3965C44.8496 39.4181 45.7688 39.4403 46.6558 39.4403C47.6027 39.4403 48.3966 39.4141 49.0828 39.3611C49.6576 39.3161 50.6114 38.7508 50.6114 38.2277V37.3831L2.97516 37.4395V38.0003C2.97516 38.8374 3.90754 39.4204 4.74359 39.4204C4.77255 39.4204 4.80214 39.4198 4.8311 39.4181H4.84558H7.21209C9.67619 39.4187 12.1422 39.4198 14.6082 39.4198C22.9788 39.4198 31.9827 39.4119 41.1107 39.3554C41.2026 39.3554 41.2958 39.3549 41.389 39.3549V39.3543ZM9.13414 35.7105C9.13917 35.6359 9.13414 35.5447 9.1291 35.4615C9.12217 35.351 9.11525 35.2375 9.12595 35.1247C9.49928 31.0444 11.9552 29.5491 15.7961 28.4601C15.9699 28.4111 16.2009 28.3655 16.4452 28.3176C16.7713 28.2538 17.1749 28.1746 17.3272 28.1011C17.4544 28.0241 17.6584 27.3579 17.7068 26.7539C16.8173 25.9224 16.2444 25.042 16.0039 24.1359C15.9384 24.1165 15.8717 24.1 15.8024 24.0829C15.6123 24.0362 15.397 23.9826 15.1603 23.8561C14.2103 23.3483 13.5587 22.0844 13.6437 20.915C13.7022 20.1069 14.0925 19.4761 14.7467 19.125C14.0441 15.9081 15.5909 13.1494 18.8054 11.907C19.6912 11.5645 20.769 11.3759 21.8399 11.3759C23.2104 11.3759 24.4664 11.6836 25.3774 12.2421C25.5127 12.3253 25.6525 12.4456 25.7879 12.5624C25.8659 12.6296 26.0107 12.7544 26.0554 12.7761C26.1001 12.7977 26.1782 12.8114 26.2607 12.8257C26.3626 12.8433 26.4898 12.8661 26.617 12.9146C27.9189 13.4109 28.7902 14.3489 29.207 15.7035C29.5891 16.9453 29.4922 18.2423 29.3323 19.1444C30.3818 19.826 30.5165 21.0039 30.2848 21.8969C30.0254 22.8953 29.1913 23.9661 27.8988 24.1678C27.6816 24.9753 27.3064 25.6711 26.7555 26.2917C26.6264 26.437 26.5062 26.5311 26.4193 26.6C26.2638 26.722 26.2474 26.7351 26.2764 27.024C26.311 27.3699 26.4407 27.7534 26.6271 28.064C29.8781 28.7615 33.323 29.8927 34.3908 32.9307C34.6558 33.6835 34.8201 34.5999 34.8799 35.6553H50.6139C50.6202 34.2807 50.6265 32.9056 50.6328 31.5311C50.6643 24.879 50.697 18.0041 50.6775 11.2329C50.6095 10.6636 50.3935 10.2624 50.0341 10.0407C49.6998 9.83498 49.3692 9.79338 48.9443 9.79338C48.8341 9.79338 48.724 9.79623 48.6069 9.79908C48.4929 9.80193 48.3632 9.80535 48.236 9.80535C48.2127 9.80535 48.1901 9.80535 48.1668 9.80535C45.007 9.77401 41.6018 9.75862 37.7558 9.75862C33.5931 9.75862 29.3606 9.77629 25.2678 9.79338C21.1744 9.81048 16.9413 9.82815 12.7774 9.82815C9.72844 9.82815 6.99301 9.81903 4.41559 9.79965C3.75581 9.82074 2.97642 10.5262 2.97642 11.1029V35.7117H9.1354L9.13414 35.7105ZM17.302 29.9087C15.3114 30.3002 12.7824 31.102 11.7732 32.7159C11.3785 33.3461 11.1311 34.3246 11.0386 34.9708C10.9863 35.3339 10.9712 35.555 10.9693 35.6855L33.0171 35.6541C32.9302 34.752 32.803 33.993 32.5046 33.2675C31.8411 31.6553 29.9555 30.5549 26.7423 29.9058C25.7041 31.2154 23.942 31.9938 22.0017 31.9938C20.0614 31.9938 18.3225 31.2165 17.302 29.9093V29.9087ZM18.9106 29.0208C19.5647 29.8038 20.7029 30.2688 21.9803 30.2688C23.2577 30.2688 24.4053 29.7998 25.0506 29.0089C25.0185 28.9524 24.982 28.8949 24.9436 28.8356C24.8599 28.704 24.7743 28.5689 24.7094 28.4116C24.6824 28.3461 24.6534 28.2367 24.6043 28.0498C24.5898 27.9939 24.5715 27.9238 24.552 27.8526C23.7575 28.2355 22.8277 28.4447 21.9066 28.4447C20.9856 28.4447 20.1653 28.2561 19.4343 27.897C19.3185 28.2908 19.1233 28.6555 18.9106 29.0214V29.0208ZM15.7577 20.5993C15.662 20.5993 15.6161 20.6255 15.5745 20.7036C15.3945 21.0409 15.5953 21.8741 15.8666 22.1847C16.0555 22.4001 16.2305 22.408 16.4962 22.4206C16.8305 22.436 17.336 22.4599 17.6426 23.0805C17.7981 23.3962 17.8944 23.6675 17.987 23.9302C18.1601 24.4197 18.2961 24.8061 18.7588 25.3115C19.5848 26.2142 20.6985 26.7111 21.894 26.7111C23.7305 26.7111 25.3944 25.5788 26.0328 23.8931C26.0668 23.8031 26.0938 23.6897 26.1222 23.57C26.2191 23.162 26.3815 22.4793 27.1735 22.3887C27.2107 22.3841 27.2484 22.3824 27.2862 22.3824C27.3895 22.3824 27.4744 22.3984 27.5424 22.4109C27.5827 22.4183 27.6174 22.4251 27.6407 22.4251C27.6438 22.4251 27.6469 22.4251 27.6501 22.4251C28.0606 22.3858 28.4194 21.7436 28.4855 21.1914C28.5277 20.8392 28.4383 20.6546 28.3835 20.638C28.3099 20.6158 28.2608 20.6112 28.2331 20.6112C28.1701 20.6112 28.1355 20.6329 28.036 20.7024C27.9284 20.7771 27.781 20.8797 27.5638 20.9087C27.5034 20.9167 27.4436 20.9213 27.3869 20.9213C26.5087 20.9213 26.4136 20.063 26.3564 19.5501C26.3368 19.3735 26.3179 19.2065 26.2821 19.1011C26.1637 18.754 25.7973 18.5455 25.373 18.3038C25.1098 18.154 24.8385 17.999 24.6181 17.7978C24.552 17.7374 24.484 17.6473 24.3776 17.5054C24.3399 17.4553 24.2832 17.3795 24.2284 17.3111C23.8941 17.5203 23.5284 17.6832 23.2067 17.8177C21.8349 18.3905 20.4479 18.6617 18.7104 18.697H18.6845C18.5335 18.697 18.4101 18.672 18.3194 18.6532C18.2678 18.6429 18.2206 18.6332 18.1941 18.6332C18.1633 18.6332 18.1003 18.6839 18.0525 18.7312C17.812 18.9666 17.7352 19.3786 17.6672 19.7422C17.5941 20.1303 17.5318 20.4659 17.2882 20.6825C17.0999 20.85 16.8966 20.9355 16.6832 20.9355C16.415 20.9355 16.2154 20.8027 16.07 20.7058C16.0316 20.6802 15.9667 20.6369 15.9428 20.6283C15.8736 20.6101 15.81 20.6004 15.7565 20.6004L15.7577 20.5993ZM21.8323 13.0969C19.7888 13.0969 17.302 14.174 16.7184 16.1702C16.5774 16.6529 16.5082 17.1863 16.5088 17.7898C16.7304 17.514 16.9948 17.2849 17.2296 17.0815L17.3329 16.992H17.4758C19.3003 16.9869 21.2248 16.9054 22.9397 15.9907C23.0474 15.9332 23.2117 15.8181 23.3848 15.6955C23.9143 15.3228 24.2857 15.0789 24.62 15.0789C25.249 15.0835 25.4976 15.6596 25.6796 16.0802C25.7539 16.2523 25.8307 16.4295 25.905 16.5133C26.0441 16.6694 26.2959 16.8125 26.5628 16.9641C26.9507 17.1846 27.3517 17.4126 27.5978 17.7699C27.6016 17.3767 27.5701 17.0011 27.5021 16.633C27.4052 16.107 27.0602 14.8498 25.944 14.5307C25.871 14.5096 25.7772 14.4982 25.6783 14.4857C25.519 14.4658 25.339 14.443 25.174 14.3717C25.0085 14.2999 24.8574 14.1637 24.6824 14.0059C24.5483 13.8851 24.4098 13.7608 24.2927 13.6936C23.6096 13.3026 22.759 13.0964 21.833 13.0964L21.8323 13.0969Z" fill="url(#paint0_linear_1_515)"/>
<path d="M16.2902 45.7118C15.8514 45.6657 15.6367 45.3602 15.6178 45.0776C15.5945 44.7237 15.8482 44.4182 16.2348 44.335L16.2537 44.331L20.3823 44.2553L20.9804 40.9831L4.66662 41.0383C2.78361 41.0059 1.35136 39.7869 1.18012 38.0733V38.0659L1.18264 11.095V11.0876C1.32807 9.70171 2.3681 8.59388 3.83308 8.26506L3.85323 8.2605H3.874C9.08549 8.19269 14.6055 8.16306 21.7724 8.16306C25.1115 8.16306 28.5068 8.16932 31.7905 8.17559C35.0743 8.18186 38.4695 8.18813 41.8081 8.18813C44.5838 8.18813 47.0555 8.18357 49.3659 8.17445H49.381L49.3962 8.17673C52.5225 8.65257 52.4961 10.9549 52.4728 12.9864C52.3935 19.9092 52.3998 26.9602 52.4067 33.7787C52.408 35.1675 52.4092 36.5563 52.4098 37.9445C52.4117 38.6785 52.0063 39.4854 51.3251 40.1037C50.7107 40.6616 49.9495 40.9813 49.2381 40.9813H32.546L33.1775 44.3054L37.415 44.3174L37.4396 44.3242C37.7726 44.4142 37.9829 44.6832 37.976 45.0086C37.969 45.3323 37.7443 45.6019 37.4163 45.6788L37.3942 45.6839L16.2996 45.7124L16.2895 45.7113L16.2902 45.7118ZM31.613 44.3054L30.889 40.9899L22.565 41.0355L21.9115 44.298L31.613 44.306V44.3054ZM41.3901 39.5156C42.2116 39.5156 43.059 39.5362 43.9568 39.5578C44.8482 39.5795 45.7699 39.6017 46.6569 39.6017C47.6088 39.6017 48.4077 39.5755 49.099 39.5213C49.7518 39.4706 50.7906 38.8574 50.7906 38.2272V37.2208L2.79746 37.2772V37.9992C2.79746 38.9315 3.82364 39.5812 4.74468 39.5812C4.77679 39.5812 4.80953 39.5806 4.84164 39.5789H4.85108H7.21318C9.67728 39.5795 12.1433 39.5806 14.6092 39.5806C22.9805 39.5806 31.9857 39.5726 41.113 39.5162C41.205 39.5162 41.2975 39.5156 41.3901 39.5156ZM9.28191 35.8719C9.32661 35.7625 9.31717 35.6052 9.30773 35.4519C9.30143 35.3476 9.29513 35.2393 9.30395 35.1373C9.66909 31.1471 12.079 29.6825 15.8495 28.6134C16.0163 28.5661 16.2442 28.5217 16.4853 28.4738C16.8373 28.4049 17.237 28.3262 17.4114 28.2425C17.6513 28.1268 17.8559 27.2634 17.8905 26.6913C16.9632 25.8393 16.3802 24.9383 16.1561 24.0123C16.0534 23.9764 15.9534 23.9519 15.8488 23.9263C15.6612 23.8801 15.4667 23.8322 15.2508 23.7165C14.3549 23.2378 13.7404 22.0377 13.821 20.9247C13.8796 20.1224 14.2775 19.5183 14.9473 19.2083C14.1988 16.017 15.6946 13.2839 18.8751 12.0547C19.7395 11.7208 20.7921 11.5367 21.8397 11.5367C23.175 11.5367 24.3957 11.8342 25.2771 12.375C25.4005 12.4502 25.5346 12.5664 25.6649 12.6787C25.7776 12.7762 25.906 12.8867 25.9722 12.9181C26.0401 12.9505 26.1308 12.9665 26.2271 12.9836C26.326 13.0013 26.438 13.0206 26.5482 13.0628C27.7972 13.5392 28.6346 14.4419 29.0356 15.7458C29.4196 16.9949 29.3101 18.3045 29.1376 19.2185C30.1959 19.842 30.3388 20.9812 30.1109 21.8588C29.854 22.8492 29.0287 23.8824 27.7525 24.0231C27.546 24.8523 27.174 25.5618 26.6162 26.1892C26.4972 26.3231 26.3889 26.408 26.302 26.4764C26.122 26.6178 26.0609 26.6656 26.0981 27.0372C26.1377 27.4321 26.2901 27.8629 26.5092 28.2031C29.7464 28.8921 33.1749 30.0045 34.22 32.9781C34.4932 33.7548 34.6575 34.7088 34.7092 35.8155H50.7913C50.7975 34.3857 50.8045 32.9559 50.8108 31.526C50.8422 24.8734 50.875 17.9933 50.8555 11.2227C50.7831 10.5993 50.5407 10.1565 50.134 9.90572C49.7632 9.6772 49.3899 9.63047 48.9435 9.63047C48.8314 9.63047 48.7194 9.63332 48.601 9.63617C48.482 9.63902 48.3593 9.64244 48.2352 9.64244C48.2126 9.64244 48.1905 9.64244 48.1679 9.64244C45.0088 9.6111 41.6028 9.59571 37.755 9.59571C33.5923 9.59571 29.3592 9.61338 25.2658 9.63047C21.1724 9.64757 16.9392 9.66524 12.776 9.66524C9.72638 9.66524 6.99032 9.65612 4.41165 9.63674C3.65618 9.6584 2.79683 10.438 2.79683 11.1019V35.8725H9.28129L9.28191 35.8719ZM17.3824 29.7275C15.3106 30.1225 12.6765 30.9454 11.6188 32.6356C11.2115 33.2864 10.9565 34.2888 10.8621 34.9498C10.7822 35.5072 10.7853 35.7477 10.7966 35.8468L33.2114 35.8149C33.1346 34.9544 33.0188 34.0529 32.6719 33.2106C31.9775 31.5238 30.012 30.3829 26.664 29.7241C25.6681 31.0456 23.9349 31.8315 22.0015 31.8315C20.0681 31.8315 18.3595 31.0474 17.3812 29.7275H17.3824ZM18.702 29.034C19.3794 29.9099 20.5963 30.4296 21.9814 30.4296C23.3664 30.4296 24.5909 29.9059 25.2582 29.0237C25.2135 28.9337 25.1575 28.8454 25.099 28.7531C25.0196 28.6283 24.9372 28.4989 24.878 28.3541C24.8547 28.2972 24.8251 28.1866 24.7791 28.0111C24.7502 27.9017 24.7055 27.7296 24.6677 27.6076C23.8562 28.0436 22.8842 28.2818 21.9077 28.2818C20.9313 28.2818 20.0656 28.0629 19.3152 27.6464C19.2107 28.149 18.9576 28.5986 18.702 29.0334V29.034ZM15.7588 20.4369C15.5951 20.4369 15.4862 20.499 15.4151 20.6324C15.2023 21.0313 15.4176 21.9294 15.728 22.2839C15.9666 22.5569 16.2083 22.5677 16.4885 22.5808C16.814 22.5962 17.2188 22.615 17.4813 23.1455C17.633 23.4527 17.7274 23.72 17.8187 23.9787C17.9906 24.4642 18.1385 24.8836 18.6233 25.4136C19.4839 26.3539 20.6461 26.8719 21.8964 26.8719C23.8096 26.8719 25.5403 25.6957 26.2045 23.9445C26.2422 23.8453 26.2699 23.7279 26.2995 23.6031C26.3977 23.19 26.5325 22.6241 27.1985 22.5477C27.2281 22.5443 27.2583 22.5426 27.2886 22.5426C27.3735 22.5426 27.4453 22.5557 27.5089 22.5677C27.5586 22.5768 27.6014 22.5848 27.643 22.5848C27.6524 22.5848 27.6619 22.5848 27.672 22.5836C28.1901 22.5341 28.5911 21.8303 28.6654 21.2068C28.7114 20.8216 28.6239 20.5372 28.4419 20.4825C28.3645 20.4592 28.2952 20.4472 28.2354 20.4472C28.1089 20.4472 28.034 20.4996 27.9301 20.5714C27.8275 20.6427 27.7116 20.723 27.5404 20.7458C27.4881 20.7526 27.4378 20.7566 27.3893 20.7566C26.6728 20.7566 26.5942 20.0483 26.5362 19.5314C26.5155 19.3462 26.4959 19.1713 26.455 19.051C26.3171 18.647 25.906 18.4128 25.4704 18.1643C25.2161 18.0195 24.9529 17.8697 24.7477 17.681C24.6929 17.6309 24.6287 17.546 24.5279 17.4115C24.4587 17.3192 24.3429 17.1653 24.2654 17.0855C23.9116 17.3289 23.4986 17.5158 23.1341 17.6674C21.7856 18.2304 20.4207 18.4971 18.7083 18.5319H18.685C18.5553 18.5319 18.447 18.5102 18.3602 18.492C18.2972 18.4789 18.2424 18.468 18.1958 18.468C18.1568 18.468 18.0762 18.468 17.9226 18.6179C17.6462 18.8886 17.5644 19.3257 17.492 19.7115C17.4246 20.0722 17.3661 20.3839 17.164 20.564C17.0104 20.7008 16.8486 20.7703 16.6843 20.7703C16.4746 20.7703 16.3097 20.6603 16.1775 20.572C16.112 20.5281 16.0434 20.4825 15.9968 20.4706C15.9087 20.4472 15.8287 20.4358 15.7582 20.4358L15.7588 20.4369ZM21.8334 12.9346C19.7231 12.9346 17.1539 14.0538 16.547 16.1281C16.3204 16.9026 16.3072 17.6862 16.3512 18.3546C16.4287 18.2161 16.5086 18.0725 16.6119 17.9381C16.8316 17.6503 17.1098 17.4092 17.3547 17.1966L17.4064 17.1522H17.4775C19.3265 17.1471 21.2782 17.0639 23.0315 16.1287C23.1492 16.066 23.3179 15.9475 23.4961 15.8215C23.9802 15.4808 24.3447 15.2397 24.6211 15.2397H24.6243C25.1273 15.2431 25.342 15.7395 25.5138 16.1384C25.5969 16.3299 25.675 16.5111 25.7663 16.6142C25.9237 16.7915 26.1881 16.9413 26.4682 17.1009C26.8391 17.3118 27.2225 17.53 27.4472 17.856L27.4522 17.864L27.7475 18.3518C27.8042 17.7261 27.7815 17.1619 27.6795 16.6068C27.5775 16.0518 27.2092 14.7234 25.9992 14.3769C25.9117 14.3519 25.811 14.3393 25.704 14.3256C25.5503 14.3063 25.3923 14.2863 25.2519 14.2259C25.1141 14.1661 24.9724 14.039 24.8087 13.8914C24.6683 13.7649 24.5229 13.6338 24.3888 13.5569C23.6774 13.1494 22.7935 12.9346 21.8334 12.9346Z" fill="url(#paint1_linear_1_515)"/>
<path d="M39.8991 29.6141C35.7661 29.6141 32.4036 26.5704 32.4036 22.8292C32.4036 19.088 35.7661 16.0444 39.8991 16.0444C44.0322 16.0444 47.3946 19.088 47.3946 22.8292C47.3946 26.5704 44.0322 29.6141 39.8991 29.6141ZM39.9249 17.783C36.8539 17.783 34.3558 20.0443 34.3558 22.8241C34.3558 25.6039 36.8539 27.8652 39.9249 27.8652C42.9959 27.8652 45.494 25.6039 45.494 22.8241C45.494 20.0443 42.9959 17.783 39.9249 17.783Z" fill="url(#paint2_linear_1_515)"/>
<path d="M39.8973 29.4517C35.8625 29.4517 32.58 26.4804 32.58 22.8281C32.58 19.1758 35.8625 16.2045 39.8973 16.2045C43.9322 16.2045 47.2147 19.1758 47.2147 22.8281C47.2147 26.4804 43.9322 29.4517 39.8973 29.4517ZM39.9232 17.6206C36.754 17.6206 34.1753 19.9548 34.1753 22.8236C34.1753 25.6923 36.754 28.0265 39.9232 28.0265C43.0924 28.0265 45.671 25.6923 45.671 22.8236C45.671 19.9548 43.0924 17.6206 39.9232 17.6206Z" fill="url(#paint3_linear_1_515)"/>
<path d="M38.4575 26.3957C37.8223 26.3957 37.3886 26.0287 37.3257 25.4384C37.2363 24.6037 37.2772 23.7005 37.3162 22.827C37.3515 22.0356 37.388 21.2167 37.3263 20.4697L37.3244 20.4486L37.3257 20.427C37.3628 19.8361 37.8355 19.407 38.4512 19.407C38.7061 19.407 38.9604 19.484 39.1864 19.6293L43.5544 22.1797L43.5815 22.2042C43.8175 22.4179 43.9327 22.6732 43.9139 22.9427C43.8937 23.239 43.7112 23.5227 43.4008 23.741C42.7266 24.2156 41.931 24.6447 41.1611 25.0595C40.4448 25.4458 39.7045 25.8453 39.0782 26.2732L39.0265 26.3085L38.9648 26.325C38.7898 26.3718 38.6193 26.3957 38.4587 26.3957H38.4575ZM39.2368 24.1934L41.3128 22.9079L41.2052 22.8464C40.5562 22.4772 39.8883 22.0971 39.2368 21.6988V24.1934Z" fill="url(#paint4_linear_1_515)"/>
<path d="M38.4591 26.2345C37.9158 26.2345 37.5589 25.9314 37.5048 25.4231C37.4166 24.5997 37.4569 23.7017 37.496 22.8333C37.5318 22.0368 37.5683 21.2134 37.5054 20.4573V20.4464V20.4356C37.5369 19.933 37.9353 19.5684 38.4528 19.5684C38.6718 19.5684 38.8915 19.6356 39.0879 19.7627L43.4433 22.3057L43.4566 22.3177C43.6555 22.4977 43.7524 22.7103 43.7373 22.9319C43.7203 23.1815 43.5623 23.4231 43.2929 23.6128C42.6275 24.0812 41.8363 24.508 41.0714 24.9205C40.3513 25.3086 39.6066 25.7103 38.9721 26.1439L38.9463 26.1616L38.9154 26.1701C38.7568 26.2129 38.6032 26.2345 38.4597 26.2345H38.4591ZM39.0596 24.5006L41.6399 22.9034C41.5272 22.839 41.4145 22.7752 41.3018 22.7108C40.5603 22.2892 39.7961 21.8538 39.0596 21.394V24.5006Z" fill="url(#paint5_linear_1_515)"/>
<path d="M32.3361 40.8212L33.0293 44.4678L37.3909 44.4803C37.9575 44.6342 37.9209 45.3956 37.3745 45.5243L16.3126 45.5528C15.6402 45.4822 15.622 44.6348 16.278 44.4935L20.5357 44.4154L21.1929 40.8223L4.66765 40.8782C2.85578 40.8468 1.52174 39.6809 1.35932 38.0602L1.36246 11.1041C1.49782 9.8037 2.47238 8.73862 3.87755 8.42291C19.0241 8.22687 34.2072 8.39726 49.3676 8.33743C52.273 8.77965 52.3208 10.7941 52.2957 12.9864C52.2 21.2974 52.2289 29.6272 52.2327 37.9468C52.2365 39.2974 50.7583 40.8223 49.2398 40.8223H32.3361V40.8212ZM50.9711 35.9773C51.007 27.725 51.0598 19.4727 51.0366 11.2141C50.9736 10.6568 50.7665 10.0983 50.237 9.77236C49.5779 9.36604 48.8986 9.48857 48.1727 9.48116C33.589 9.33698 18.997 9.58487 4.41268 9.47546C3.56718 9.49768 2.62095 10.3405 2.62095 11.1019V35.9482L2.71539 36.0337H9.38871C9.57317 35.8109 9.45796 35.4359 9.48377 35.151C9.83633 31.3009 12.0964 29.8478 15.9046 28.7679C16.317 28.651 17.177 28.5393 17.4968 28.3855C17.8947 28.194 18.0596 27.0144 18.0735 26.628C17.2412 25.8758 16.5443 24.9594 16.3132 23.896C15.9714 23.7576 15.6837 23.7593 15.3431 23.5775C13.8655 22.7882 13.3266 20.0027 15.1542 19.3C14.378 16.2256 15.7177 13.4514 18.9467 12.2034C20.7755 11.4968 23.4889 11.4729 25.1787 12.5089C25.4085 12.6496 25.7201 12.9802 25.8907 13.0611C26.0613 13.142 26.2823 13.1357 26.48 13.2115C29.1071 14.2128 29.3917 17.0547 28.9422 19.2983C30.9927 20.3777 29.9054 23.7376 27.6075 23.8732C27.4193 24.7013 27.0636 25.4301 26.4793 26.0878C26.1123 26.5003 25.858 26.4052 25.9228 27.0514C25.9669 27.4885 26.1425 27.9735 26.3975 28.3445C29.4584 28.9907 32.9991 30.0296 34.0523 33.0265C34.3784 33.9543 34.5037 35.0079 34.5396 35.9762H50.9711V35.9773ZM27.8656 18.8812C27.9808 18.101 28.001 17.3613 27.8575 16.5812C27.6805 15.6181 27.1586 14.5399 26.0544 14.2242C25.8208 14.1575 25.5344 14.1701 25.3304 14.0817C25.1107 13.9866 24.789 13.5956 24.4855 13.4218C21.7923 11.8803 17.2154 13.2184 16.3762 16.0882C16.1067 17.0097 16.12 17.9386 16.2201 18.8812C16.4373 18.6253 16.5531 18.3028 16.7602 18.0315C16.9673 17.7602 17.2217 17.5386 17.4798 17.3152C19.4547 17.31 21.3881 17.1949 23.1238 16.2695C23.5041 16.0666 24.269 15.4004 24.6253 15.4027C25.2089 15.4067 25.3153 16.3623 25.6301 16.7168C26.0223 17.1573 26.9295 17.4069 27.2984 17.942L27.8656 18.8812ZM24.2551 16.8906C23.9038 17.1533 23.4738 17.3511 23.0615 17.5232C21.6317 18.1198 20.275 18.3409 18.7068 18.3729C18.324 18.3808 18.1585 18.154 17.7946 18.5108C17.2305 19.0635 17.4024 20.1298 17.0423 20.4512C16.5959 20.8484 16.322 20.3891 16.0494 20.3178C14.7588 19.9787 15.102 21.828 15.5905 22.3859C16.1993 23.0811 16.9069 22.3756 17.3205 23.2133C17.7562 24.0955 17.7216 24.6808 18.4884 25.5185C20.9348 28.1923 25.1957 27.1095 26.3755 23.9992C26.5499 23.5393 26.5165 22.7911 27.2235 22.7101C27.4079 22.6891 27.5282 22.762 27.6931 22.7466C28.7332 22.6475 29.2563 20.5583 28.5009 20.3315C27.9355 20.1617 27.8581 20.5429 27.5162 20.5891C26.6053 20.7116 26.8042 19.5206 26.6279 19.006C26.3818 18.2857 25.4078 18.0566 24.8771 17.5705C24.7443 17.4491 24.388 16.869 24.2557 16.8912L24.2551 16.8906ZM19.179 27.3723C19.1211 27.9843 18.8075 28.5154 18.4959 29.0448C19.9829 31.1117 23.9976 31.1055 25.4613 29.0431C25.3543 28.7827 25.1548 28.5627 25.0477 28.2994C24.9886 28.1547 24.8249 27.3774 24.7506 27.3734C23.1188 28.337 20.7957 28.4049 19.179 27.3723ZM17.4666 29.548C15.3859 29.9327 12.5781 30.7772 11.465 32.5569C11.0621 33.2009 10.792 34.1953 10.6869 34.9299C10.6617 35.1077 10.544 35.9266 10.6755 36.0092L33.407 35.9767C33.3258 35.0233 33.2131 34.0568 32.8417 33.1547C31.9137 30.8997 28.9762 30.0016 26.5857 29.544C24.5712 32.3655 19.4629 32.3922 17.4672 29.548H17.4666ZM50.9711 37.0601L2.62095 37.117V38.0003C2.62095 39.0421 3.76801 39.7932 4.85274 39.7413C16.9352 39.7447 29.0643 39.7538 41.116 39.6792C43.643 39.6638 46.6605 39.8752 49.1164 39.6837C49.8612 39.6256 50.9711 38.9583 50.9711 38.2283V37.0601ZM31.8319 44.4684L31.0374 40.8286L22.4181 40.8759L21.7218 44.351L21.7998 44.4598L31.8319 44.4678V44.4684Z" fill="url(#paint6_linear_1_515)"/>
<path d="M47.0363 22.8274C47.0363 26.396 43.84 29.2892 39.8977 29.2892C35.9554 29.2892 32.7592 26.396 32.7592 22.8274C32.7592 19.2589 35.9554 16.3657 39.8977 16.3657C43.84 16.3657 47.0363 19.2589 47.0363 22.8274ZM45.8489 22.8229C45.8489 19.8601 43.196 17.4587 39.9229 17.4587C36.6498 17.4587 33.9969 19.8601 33.9969 22.8229C33.9969 25.7856 36.6498 28.1871 39.9229 28.1871C43.196 28.1871 45.8489 25.7856 45.8489 22.8229Z" fill="url(#paint7_linear_1_515)"/>
<path d="M43.3299 22.4322C43.7177 22.7832 43.5792 23.2066 43.1826 23.4858C41.9022 24.3867 40.1831 25.1143 38.8637 26.0152C38.2607 26.177 37.7457 26.0038 37.6822 25.4072C37.5147 23.8419 37.8156 22.0362 37.6828 20.4447C37.7225 19.8117 38.4117 19.5211 38.9865 19.896L43.3299 22.4317V22.4322ZM38.882 24.806L41.9652 22.8972C40.9398 22.3103 39.9043 21.7365 38.9122 21.1029C38.7202 21.0875 38.882 21.1644 38.882 21.1878V24.806Z" fill="url(#paint8_linear_1_515)"/>
<defs>
<linearGradient id="paint0_linear_1_515" x1="1.00023" y1="26.9371" x2="52.6543" y2="26.9371" gradientUnits="userSpaceOnUse">
<stop stop-color="#BF5331"/>
<stop offset="1" stop-color="#EF6A5A"/>
</linearGradient>
<linearGradient id="paint1_linear_1_515" x1="1.18012" y1="26.9377" x2="52.4769" y2="26.9377" gradientUnits="userSpaceOnUse">
<stop stop-color="#BF5331"/>
<stop offset="1" stop-color="#EF6A5A"/>
</linearGradient>
<linearGradient id="paint2_linear_1_515" x1="32.4036" y1="22.8292" x2="47.3946" y2="22.8292" gradientUnits="userSpaceOnUse">
<stop stop-color="#BF5331"/>
<stop offset="1" stop-color="#EF6A5A"/>
</linearGradient>
<linearGradient id="paint3_linear_1_515" x1="32.58" y1="22.8281" x2="47.2147" y2="22.8281" gradientUnits="userSpaceOnUse">
<stop stop-color="#BF5331"/>
<stop offset="1" stop-color="#EF6A5A"/>
</linearGradient>
<linearGradient id="paint4_linear_1_515" x1="37.2721" y1="22.9014" x2="43.9159" y2="22.9014" gradientUnits="userSpaceOnUse">
<stop stop-color="#BF5331"/>
<stop offset="1" stop-color="#EF6A5A"/>
</linearGradient>
<linearGradient id="paint5_linear_1_515" x1="37.452" y1="22.9014" x2="43.7388" y2="22.9014" gradientUnits="userSpaceOnUse">
<stop stop-color="#BF5331"/>
<stop offset="1" stop-color="#EF6A5A"/>
</linearGradient>
<linearGradient id="paint6_linear_1_515" x1="1.35932" y1="26.9391" x2="52.2989" y2="26.9391" gradientUnits="userSpaceOnUse">
<stop stop-color="#BF5331"/>
<stop offset="1" stop-color="#EF6A5A"/>
</linearGradient>
<linearGradient id="paint7_linear_1_515" x1="32.7592" y1="22.8274" x2="47.0363" y2="22.8274" gradientUnits="userSpaceOnUse">
<stop stop-color="#BF5331"/>
<stop offset="1" stop-color="#EF6A5A"/>
</linearGradient>
<linearGradient id="paint8_linear_1_515" x1="37.63" y1="22.9011" x2="43.56" y2="22.9011" gradientUnits="userSpaceOnUse">
<stop stop-color="#BF5331"/>
<stop offset="1" stop-color="#EF6A5A"/>
</linearGradient>
</defs>
</svg>
