<svg width="33" height="33" viewBox="0 0 33 33" fill="none" xmlns="http://www.w3.org/2000/svg">
<g clip-path="url(#clip0_1_1471)">
<path d="M11.1036 27.0684C10.6964 27.4756 10.6964 28.1356 11.1016 28.5405L11.306 28.745C11.7129 29.1518 12.373 29.1518 12.7799 28.745L13.01 28.5128L11.3355 26.8385L11.1036 27.0684Z" fill="#8A8A8A"/>
<path d="M8.25854 24.8415C7.85165 25.2463 7.85165 25.9085 8.25854 26.3156L8.46099 26.518C8.87033 26.9271 9.53052 26.9251 9.93535 26.518C9.93535 26.518 10.1348 26.3183 10.4668 25.9862L10.4676 25.9852C10.4704 25.9825 10.4724 25.9807 10.4751 25.9779L8.7984 24.3016L8.25854 24.8415Z" fill="#8A8A8A"/>
<path d="M6.28814 21.7913L6.05598 22.0211C5.64915 22.428 5.64915 23.0881 6.05398 23.493L6.25843 23.6977C6.66577 24.1048 7.32564 24.1048 7.73279 23.6977L7.96238 23.4658L6.28814 21.7913Z" fill="#8A8A8A"/>
<path d="M25.9165 3.4812L21.6332 7.8129L18.4633 8.85472L17.4532 9.18756H17.4512L16.4411 9.52091H16.4389L9.00105 11.9671C8.8744 12.0114 8.75857 12.0809 8.66144 12.1695C8.61104 12.2138 8.56676 12.2625 8.52848 12.3171C8.48645 12.37 8.45274 12.4268 8.42323 12.4881C8.31997 12.7073 8.29683 12.9541 8.35781 13.1862C8.36438 13.2134 8.37237 13.2431 8.38294 13.2703L8.4947 13.5845C8.54556 13.724 8.62361 13.8504 8.73086 13.9581V13.9602C8.77972 14.0085 8.83437 14.0528 8.88922 14.0886C8.97359 14.1434 9.06621 14.1878 9.16141 14.2152C9.18455 14.2235 9.20975 14.23 9.23495 14.2341C9.30694 14.2513 9.38048 14.2595 9.45647 14.2595C9.49224 14.2595 9.52595 14.2572 9.56198 14.2532C9.5935 14.2512 9.62321 14.2469 9.65492 14.2406C9.66949 14.2386 9.68638 14.234 9.70127 14.23C9.73498 14.2235 9.76669 14.2129 9.79814 14.2026L13.0709 13.4919H13.0732C13.0963 13.4856 13.1173 13.4792 13.1407 13.4772C13.149 13.475 13.1576 13.473 13.1661 13.473L13.1721 13.4707L18.8878 12.2321L21.4571 14.8006L21.8829 15.2286L21.8942 15.24L21.8753 15.236L26.6161 19.9745C27.5545 18.9876 28.1766 17.7645 28.4253 16.423L28.6997 14.9114L33 10.5647L25.9165 3.4812Z" fill="#8A8A8A"/>
<path d="M25.7239 20.8727L18.486 13.6131L13.434 14.7086L13.3431 14.7297H13.3325L13.2925 14.738L10.1313 15.4256C9.98372 15.4697 9.83194 15.4994 9.67809 15.512C9.60409 15.5205 9.53055 15.5245 9.4565 15.5245C8.84496 15.5245 8.26914 15.2844 7.83711 14.8518C7.6007 14.6156 7.42171 14.3352 7.30338 14.0083L7.18955 13.6901C6.9891 13.1186 7.02081 12.5007 7.28217 11.9418C7.54379 11.3954 8.00353 10.98 8.57504 10.7756L8.58986 10.769L8.60649 10.765L11.8163 9.70905L14.4111 8.86433L14.3978 8.86008L14.4144 8.85454L11.2471 7.81285L7.16287 3.56371L7.09087 3.48843V3.48862L7.08353 3.48108L0 10.5647L4.18036 14.9113L4.45635 16.4229C4.71365 17.8255 5.38435 19.0992 6.39446 20.1093L7.15778 20.8707L8.83659 22.5492L9.69265 23.4075L11.3691 25.084L12.2295 25.9423L13.9062 27.6188L15.5067 29.2193C15.7048 29.4177 15.9642 29.519 16.2258 29.519C16.2976 29.519 16.3713 29.5104 16.441 29.4958C16.6263 29.4555 16.8016 29.3629 16.9471 29.2193L17.1813 28.9852C17.5796 28.5869 17.5796 27.9414 17.1813 27.543L12.8393 23.201C12.5754 22.9372 12.6071 22.488 12.9339 22.2667C13.0331 22.1993 13.145 22.1698 13.2587 22.1698C13.4254 22.1698 13.5921 22.2373 13.7165 22.3597L13.9063 22.5493L14.7643 23.4075L17.2992 25.9423L18.976 27.6189L20.1019 28.7451C20.3043 28.9495 20.5722 29.0507 20.8381 29.0507C21.1057 29.0507 21.3714 28.9495 21.5737 28.7451L21.7785 28.5406C22.1856 28.1358 22.1856 27.4757 21.7785 27.0685L18.976 24.2661L18.1154 23.4075L16.4412 21.7312L15.5806 20.8727L15.3908 20.6828C15.1546 20.4447 15.14 20.059 15.3613 19.8248L15.3761 19.8098C15.49 19.6939 15.644 19.6307 15.8062 19.6307C15.8082 19.6307 15.8082 19.6307 15.8104 19.6307C15.9708 19.6307 16.1224 19.6939 16.2364 19.8077C16.2933 19.8645 16.3631 19.9344 16.4411 20.0121C16.6581 20.2317 16.9555 20.5267 17.2992 20.8727C17.7865 21.3598 18.3684 21.9442 18.9737 22.5492L19.834 23.4095C20.4309 24.0064 21.015 24.5885 21.5108 25.084C22.3521 25.9257 22.9446 26.5181 22.9446 26.5181C23.1493 26.7228 23.4149 26.824 23.6826 26.824C23.9485 26.824 24.2143 26.7228 24.4188 26.5181L24.6232 26.3157C25.0281 25.9086 25.0281 25.2464 24.6232 24.8416L23.1871 23.4075L17.7147 17.9396C17.5797 17.8173 17.5757 17.6103 17.7021 17.4818L17.9111 17.2729C18.0289 17.155 18.185 17.0959 18.3411 17.0959C18.4972 17.0959 18.6513 17.1551 18.7691 17.2729L24.0457 22.5492L24.4462 22.9497C24.6908 23.1945 25.0197 23.3234 25.3446 23.3234C25.5765 23.3234 25.8066 23.2579 26.0005 23.121C26.3504 22.8762 26.5402 22.4691 26.5002 22.0348C26.4748 21.7458 26.3315 21.4799 26.1268 21.2755L25.7239 20.8727Z" fill="#8A8A8A"/>
</g>
<defs>
<clipPath id="clip0_1_1471">
<rect width="33" height="33" fill="white"/>
</clipPath>
</defs>
</svg>
