<svg width="50" height="29" viewBox="0 0 50 29" fill="none" xmlns="http://www.w3.org/2000/svg">
<g clip-path="url(#clip0_1_1984)">
<path d="M26.7001 0.161852L49.088 7.08315C49.3844 7.17435 49.6066 7.30847 49.7592 7.47388L49.8091 7.53736C49.9862 7.75999 50.0391 8.00855 49.9725 8.275C49.9197 8.48243 49.7925 8.67824 49.5899 8.85259C49.3013 9.10563 48.8081 9.35955 48.1417 9.5652L27.6493 15.9017C26.9252 16.1244 26.0935 16.2719 25.339 16.3273C24.5454 16.3881 23.8027 16.3479 23.3027 16.1932L0.911935 9.27014C0.618376 9.17894 0.396249 9.04751 0.243599 8.8821C0.0244076 8.64158 -0.0450681 8.36977 0.0273432 8.07829C0.0801839 7.87265 0.207393 7.67773 0.407013 7.5007C0.698615 7.24767 1.1918 6.99642 1.8572 6.79078L22.3506 0.45512C23.0747 0.232487 23.9064 0.0822763 24.6609 0.0268415C25.4545 -0.0339579 26.2001 0.00627699 26.6992 0.160958L26.7001 0.161852ZM47.9861 8.17307L26.2256 1.444C25.9232 1.35012 25.3909 1.33224 24.7832 1.37784C24.1344 1.42612 23.4299 1.5504 22.8281 1.73817L2.3357 8.07382C2.21632 8.10959 2.11064 8.14446 2.01376 8.18022L23.7743 14.9093C24.0796 15.0032 24.609 15.021 25.2167 14.9755C25.8655 14.9272 26.57 14.8029 27.1718 14.6178L47.6642 8.28126C47.7836 8.2437 47.8893 8.20794 47.9861 8.17218V8.17307Z" fill="url(#paint0_linear_1_1984)"/>
<path d="M38.8692 11.4858C38.8692 11.1102 39.2019 10.8062 39.6129 10.8062C40.0239 10.8062 40.3566 11.1102 40.3566 11.4858V20.645C40.3566 20.9133 40.1844 21.1439 39.9378 21.2557C34.7477 23.9952 29.6387 25.3668 24.5377 25.3668C19.4366 25.3668 14.3189 23.9881 9.16297 21.228C8.93008 21.101 8.797 20.8757 8.797 20.645H8.79407V11.222C8.79407 10.8465 9.12677 10.5452 9.53775 10.5452C9.94873 10.5452 10.2814 10.8465 10.2814 11.222V20.2579C15.0743 22.7596 19.8035 24.0113 24.5386 24.0113C29.2737 24.0113 34.0275 22.7569 38.8702 20.2525V11.4858H38.8692Z" fill="url(#paint1_linear_1_1984)"/>
<path d="M11.5995 12.0911C11.5995 11.7156 11.9322 11.4116 12.3432 11.4116C12.7542 11.4116 13.0869 11.7156 13.0869 12.0911V24.3762C13.0869 24.7517 12.7542 25.0557 12.3432 25.0557C11.9322 25.0557 11.5995 24.7517 11.5995 24.3762V12.0911Z" fill="url(#paint2_linear_1_1984)"/>
<path d="M11.5946 23.6968H13.0927C13.4254 23.6968 13.7053 23.8971 13.8031 24.1707L15.2621 27.5718C15.4118 27.9188 15.223 28.3122 14.8404 28.449C14.813 28.4588 14.7846 28.4668 14.7572 28.4749C13.9499 28.7002 13.1455 28.8147 12.3441 28.8147C11.5427 28.8147 10.7158 28.6984 9.8978 28.4651C9.50639 28.356 9.28719 27.9787 9.40951 27.621L9.42615 27.5727L10.9047 24.1313C11.0182 23.8622 11.2991 23.7004 11.5955 23.6977L11.5946 23.6968ZM12.5868 25.0549H12.0985L11.1112 27.3483C11.5222 27.419 11.9322 27.4547 12.3431 27.4547C12.7541 27.4547 13.1641 27.419 13.5751 27.3483L12.5878 25.0549H12.5868Z" fill="url(#paint3_linear_1_1984)"/>
<path d="M12.5819 12.7322C12.1934 12.8511 11.7717 12.6616 11.6415 12.3066C11.5114 11.9544 11.7188 11.569 12.1044 11.4501L24.7607 7.53657C25.1492 7.41497 25.5709 7.60452 25.7011 7.95948C25.8312 8.31444 25.6237 8.69712 25.2382 8.81872L12.5809 12.7322H12.5819Z" fill="url(#paint4_linear_1_1984)"/>
</g>
<defs>
<linearGradient id="paint0_linear_1_1984" x1="-0.000244141" y1="8.17709" x2="50.0003" y2="8.17709" gradientUnits="userSpaceOnUse">
<stop stop-color="#BF5331"/>
<stop offset="1" stop-color="#EF6A5A"/>
</linearGradient>
<linearGradient id="paint1_linear_1_1984" x1="8.79407" y1="17.956" x2="40.3566" y2="17.956" gradientUnits="userSpaceOnUse">
<stop stop-color="#BF5331"/>
<stop offset="1" stop-color="#EF6A5A"/>
</linearGradient>
<linearGradient id="paint2_linear_1_1984" x1="11.5995" y1="18.2337" x2="13.0869" y2="18.2337" gradientUnits="userSpaceOnUse">
<stop stop-color="#BF5331"/>
<stop offset="1" stop-color="#EF6A5A"/>
</linearGradient>
<linearGradient id="paint3_linear_1_1984" x1="9.37561" y1="26.2557" x2="15.3134" y2="26.2557" gradientUnits="userSpaceOnUse">
<stop stop-color="#BF5331"/>
<stop offset="1" stop-color="#EF6A5A"/>
</linearGradient>
<linearGradient id="paint4_linear_1_1984" x1="11.6027" y1="10.1337" x2="25.7399" y2="10.1337" gradientUnits="userSpaceOnUse">
<stop stop-color="#BF5331"/>
<stop offset="1" stop-color="#EF6A5A"/>
</linearGradient>
<clipPath id="clip0_1_1984">
<rect width="50" height="28.8136" fill="white"/>
</clipPath>
</defs>
</svg>
