<svg width="53" height="53" viewBox="0 0 53 53" fill="none" xmlns="http://www.w3.org/2000/svg">
<path d="M39.0952 24.568C38.702 24.568 38.3838 24.2278 38.3838 23.8082V13.359C38.3838 12.9394 38.702 12.5992 39.0952 12.5992C39.4885 12.5992 39.8067 12.9394 39.8067 13.359V23.8082C39.8067 24.2278 39.4885 24.568 39.0952 24.568Z" fill="url(#paint0_linear_86_20)"/>
<path d="M37.8655 50.3126H9.94258C8.87124 50.3126 8 49.3818 8 48.2381V6.06954C8 4.92843 8.86986 3.99988 9.93842 3.99988H31.0442C31.4375 3.99988 31.7557 4.34006 31.7557 4.75963C31.7557 5.1792 31.4375 5.51939 31.0442 5.51939H9.93842C9.65425 5.51939 9.42289 5.76608 9.42289 6.06954V48.2381C9.42289 48.5442 9.65634 48.7931 9.94258 48.7931H37.8655C38.1517 48.7931 38.3852 48.5442 38.3852 48.2381V45.7381C38.3852 45.3186 38.7034 44.9784 39.0966 44.9784C39.4899 44.9784 39.8081 45.3186 39.8081 45.7381V48.2381C39.8081 49.3818 38.9368 50.3126 37.8655 50.3126Z" fill="url(#paint1_linear_86_20)"/>
<path d="M32.6532 14.5351C31.3547 14.5351 30.3334 13.4437 30.3334 12.1022V4.75918C30.3334 4.45202 30.5064 4.1749 30.7725 4.0573C31.0393 3.94044 31.3443 4.00462 31.5479 4.22201L39.6003 12.8212C39.7983 13.0326 39.8615 13.3483 39.7622 13.6277C39.6635 13.9074 39.4196 14.0988 39.1403 14.1166L32.656 14.5351H32.6532ZM31.7563 6.59328V12.1022C31.7563 12.6068 32.1405 13.0171 32.613 13.0171L37.4764 12.7021L31.7563 6.59328Z" fill="url(#paint2_linear_86_20)"/>
<path d="M42.7115 41.6954C42.0855 41.6954 41.4964 41.4353 41.0538 40.9627L36.1959 35.7743C35.918 35.4775 35.918 34.9967 36.1959 34.6999C36.4739 34.4031 36.9241 34.4031 37.202 34.6999L42.0598 39.888C42.4072 40.259 43.0151 40.2597 43.3625 39.888C43.5369 39.7021 43.6321 39.4551 43.6321 39.1924C43.6321 38.9298 43.5369 38.6827 43.3625 38.4972L38.5047 33.3091C38.2268 33.0124 38.2268 32.5316 38.5047 32.2348C38.7826 31.938 39.2328 31.938 39.5107 32.2348L44.3686 37.4225C44.8111 37.8951 45.055 38.5235 45.055 39.1924C45.055 39.8613 44.8111 40.4897 44.3686 40.9627C43.926 41.4349 43.3375 41.6954 42.7115 41.6954Z" fill="url(#paint3_linear_86_20)"/>
<path d="M40.4045 44.1606C39.7785 44.1606 39.1894 43.9002 38.7475 43.4268L33.889 38.2395C33.611 37.9431 33.611 37.4619 33.889 37.1651C34.1669 36.8683 34.6171 36.8683 34.895 37.1651L39.7535 42.3528C40.1023 42.7245 40.7068 42.7242 41.0555 42.3532C41.2299 42.167 41.3251 41.9199 41.3251 41.6572C41.3251 41.395 41.2299 41.1479 41.0555 40.9624L36.1977 35.774C35.9198 35.4772 35.9198 34.9964 36.1977 34.6996C36.4756 34.4029 36.9258 34.4029 37.2037 34.6996L42.0616 39.8877C42.5041 40.3603 42.748 40.9888 42.748 41.6572C42.748 42.3261 42.5041 42.9545 42.0616 43.4275C41.6197 43.9002 41.0305 44.1606 40.4045 44.1606Z" fill="url(#paint4_linear_86_20)"/>
<path d="M45.0221 39.2286C44.4024 39.2286 43.7972 38.9619 43.3616 38.4963L38.5045 33.3093C38.2266 33.0125 38.2266 32.5318 38.5045 32.235C38.7824 31.9382 39.2326 31.9382 39.5105 32.235L44.3676 37.4219C44.7658 37.8471 45.5043 37.7625 45.8086 37.2387C46.0275 36.864 45.9351 36.3087 45.5953 35.9462L39.1443 29.0658L37.3636 30.9588C36.5834 31.7928 35.542 32.2524 34.4338 32.2524C33.5577 32.2457 32.8316 31.7138 32.5051 30.8642C32.1674 29.9839 32.3509 28.986 32.9727 28.3216L35.5329 25.5834C35.2328 25.4354 34.9201 25.3278 34.604 25.2651C33.5507 25.0563 32.6524 24.6445 31.9277 24.0398L25.9659 30.4143C26.5238 31.0787 26.9275 31.88 27.1401 32.744L27.229 33.1068C27.2943 33.3709 27.3881 33.6358 27.509 33.8932C27.6848 34.2687 27.5423 34.725 27.1908 34.9127C26.8392 35.1008 26.4126 34.9479 26.2362 34.5729C26.0722 34.2223 25.943 33.8591 25.8527 33.4933L25.763 33.129C25.5963 32.4476 25.2649 31.8195 24.8056 31.3131L24.4596 30.9325C24.1894 30.6346 24.1921 30.1601 24.4666 29.8667L31.3879 22.4665C31.6554 22.1812 32.0827 22.1686 32.3648 22.4357L32.6288 22.6865C33.195 23.2244 33.9474 23.5894 34.8639 23.7709C35.658 23.9285 36.4333 24.2917 37.1059 24.8211C37.2851 24.9617 37.3921 25.1835 37.3956 25.4206C37.3991 25.6576 37.299 25.8828 37.1246 26.0293L33.9787 29.3959C33.7175 29.6749 33.7265 30.0396 33.8217 30.2881C33.8731 30.4209 34.0322 30.7299 34.4123 30.7329C35.1619 30.7329 35.8463 30.4313 36.359 29.8834L38.1411 27.9892C38.6948 27.3997 39.5966 27.4005 40.1504 27.9907L46.6013 34.8711C47.4101 35.734 47.5851 37.0673 47.0168 38.0411C46.5847 38.7842 45.8385 39.2286 45.0221 39.2286Z" fill="url(#paint5_linear_86_20)"/>
<path d="M38.093 46.6307C37.4684 46.6307 36.8793 46.3688 36.4346 45.8929L35.1653 44.5381C34.8873 44.2417 34.8873 43.7605 35.1653 43.4637C35.4432 43.167 35.8934 43.167 36.1713 43.4637L37.4406 44.8189C37.8116 45.2155 38.4564 45.1888 38.8066 44.7495C39.1011 44.3741 39.0469 43.7472 38.6822 43.3569L33.889 38.2389C33.611 37.9425 33.611 37.4614 33.889 37.1646C34.1669 36.8678 34.6171 36.8678 34.895 37.1646L39.6882 42.2826C40.5761 43.2315 40.6665 44.7462 39.8932 45.7308C39.4346 46.3047 38.7802 46.6307 38.093 46.6307Z" fill="url(#paint6_linear_86_20)"/>
<path d="M24.2602 31.4781C24.2596 31.4781 24.2582 31.4781 24.2575 31.4781C23.801 31.4774 23.3716 31.2867 23.05 30.9406L20.8698 28.5975C20.5932 28.3004 20.5939 27.8207 20.8711 27.5247L29.2112 18.6183C29.3446 18.4759 29.5252 18.3958 29.7142 18.3958C29.9025 18.3958 30.0845 18.4763 30.2179 18.6191L32.4009 20.9558C33.0637 21.6659 33.063 22.8204 32.4002 23.5297L25.4671 30.9439C25.1447 31.2886 24.716 31.4781 24.2602 31.4781ZM22.3788 28.0637L24.0588 29.8692C24.131 29.9471 24.2158 29.9586 24.2596 29.9586C24.3033 29.9586 24.3881 29.9471 24.4603 29.87L31.3928 22.4561C31.5033 22.3381 31.5033 22.1463 31.3935 22.0287L29.7135 20.2306L22.3788 28.0637Z" fill="url(#paint7_linear_86_20)"/>
<path d="M49.4004 31.1514C48.9439 31.1514 48.5152 30.9614 48.1928 30.6168L41.2597 23.2025C40.5962 22.4921 40.5969 21.3376 41.2604 20.6283L43.442 18.2923C43.5754 18.1495 43.756 18.069 43.945 18.069C44.134 18.069 44.3153 18.1491 44.4487 18.2916L52.7888 27.1979C53.066 27.4939 53.0667 27.9736 52.7902 28.2704L50.6106 30.6134C50.2883 30.9603 49.8367 31.1684 49.4004 31.1514ZM43.9464 19.9038L42.2671 21.7019C42.1567 21.8199 42.1574 22.0113 42.2671 22.1293L49.2003 29.5432C49.2718 29.6204 49.3566 29.6319 49.4004 29.6319C49.4094 29.6337 49.5289 29.6215 49.6018 29.5424L51.2811 27.7369L43.9464 19.9038Z" fill="url(#paint8_linear_86_20)"/>
<path d="M45.9526 36.0129C45.7706 36.0129 45.5886 35.9388 45.4496 35.7907L39.1432 29.065L37.3632 30.9592C36.5829 31.7928 35.5415 32.2524 34.4333 32.2524C33.5572 32.2457 32.8312 31.7137 32.5046 30.8642C32.167 29.9839 32.3504 28.986 32.9722 28.3216L36.073 25.0013C36.9025 24.1166 37.9475 23.5553 39.098 23.3757C39.9296 23.2359 40.7147 22.8093 41.3018 22.1753C41.4352 22.0313 41.6166 21.9501 41.8062 21.9497H41.8076C41.9966 21.9497 42.1779 22.0298 42.3113 22.173L49.241 29.5903C49.3758 29.7346 49.4508 29.9308 49.4487 30.1352C49.4466 30.3393 49.3674 30.5337 49.2299 30.675L49.0603 30.8486C48.558 31.3617 48.2002 32.0124 48.0251 32.7306L47.9279 33.1286C47.6771 34.1013 47.14 35.0696 46.4522 35.7941C46.3139 35.9399 46.1333 36.0129 45.9526 36.0129ZM39.1446 27.5473C39.5079 27.5473 39.872 27.6946 40.1485 27.9895L45.9116 34.1358C46.2034 33.7022 46.4306 33.2102 46.5536 32.735L46.6481 32.3466C46.8489 31.5264 47.222 30.7696 47.7375 30.1319L41.775 23.7504C41.0621 24.334 40.2089 24.7272 39.3113 24.8778C38.4581 25.011 37.6897 25.4242 37.0811 26.0738L33.9782 29.3959C33.717 29.6749 33.726 30.0395 33.8212 30.2881C33.8726 30.4209 34.0317 30.7299 34.4118 30.7329C35.1614 30.7329 35.8458 30.4313 36.3585 29.8834L38.142 27.988C38.4178 27.6942 38.7812 27.5473 39.1446 27.5473Z" fill="url(#paint9_linear_86_20)"/>
<path d="M26.496 39.2263C25.8138 39.2263 25.1676 38.9125 24.723 38.3657C23.9205 37.3778 24.0046 35.8438 24.9133 34.873L25.5761 34.1648C26.4613 33.2195 28.0044 33.2203 28.8881 34.1648L28.8937 34.1703C29.8066 35.1456 29.8066 36.7319 28.8937 37.7072L28.1544 38.4966C27.714 38.9674 27.1248 39.2263 26.496 39.2263ZM27.2325 34.9516C26.9865 34.9516 26.7559 35.054 26.5822 35.2395L25.9194 35.9473C25.5421 36.3502 25.4879 36.9882 25.7978 37.3696C26.1347 37.7844 26.7885 37.8081 27.1484 37.4223L27.8877 36.6329C28.2455 36.25 28.2455 35.6275 27.8877 35.2447C27.6994 35.0499 27.4729 34.9516 27.2325 34.9516Z" fill="url(#paint10_linear_86_20)"/>
<path d="M28.8069 41.6943C28.124 41.6943 27.4778 41.3801 27.0339 40.8325C26.2314 39.8457 26.3155 38.3117 27.2242 37.3409L27.8877 36.6324C28.7715 35.6886 30.3146 35.6879 31.1997 36.6324C32.1113 37.6062 32.112 39.1917 31.2018 40.167L30.4598 40.9635C30.0179 41.435 29.4315 41.6943 28.8069 41.6943ZM29.5434 37.4196C29.2981 37.4196 29.0675 37.5216 28.8938 37.7071L28.2303 38.4156C27.853 38.8178 27.7988 39.4558 28.1087 39.8376C28.4422 40.2493 29.0883 40.279 29.4524 39.8902L30.1937 39.0945C30.5515 38.7117 30.5515 38.0892 30.1937 37.7071C30.02 37.5216 29.7893 37.4196 29.5434 37.4196Z" fill="url(#paint11_linear_86_20)"/>
<path d="M31.1111 44.1629C30.4226 44.1629 29.7688 43.8376 29.3179 43.27C28.5398 42.2895 28.6266 40.7752 29.5159 39.8221L30.1899 39.0987C30.6324 38.6246 31.2209 38.3635 31.8469 38.3627C31.8476 38.3627 31.8483 38.3627 31.849 38.3627C32.4743 38.3627 33.0627 38.6228 33.5053 39.095C33.5053 39.0954 33.5088 39.0991 33.5088 39.0991C34.4217 40.0744 34.4217 41.6607 33.5088 42.636L32.7696 43.4254C32.3242 43.901 31.735 44.1629 31.1111 44.1629ZM31.849 39.8822C31.603 39.8826 31.3717 39.985 31.198 40.1709L30.524 40.8943C30.1586 41.286 30.1044 41.9107 30.4032 42.2873C30.7457 42.718 31.3918 42.7488 31.7635 42.3511L32.5028 41.5616C32.8606 41.1788 32.8606 40.5563 32.5028 40.1735L32.4993 40.1697C32.3256 39.9843 32.0949 39.8822 31.849 39.8822Z" fill="url(#paint12_linear_86_20)"/>
<path d="M33.423 46.631C32.7338 46.631 32.0793 46.3046 31.6284 45.7359C30.8489 44.7513 30.9385 43.2337 31.8313 42.2795L32.5039 41.5613C33.3876 40.6175 34.9307 40.6168 35.8158 41.5613L35.3163 42.1029L35.8193 41.5654C36.2619 42.0376 36.5057 42.6661 36.505 43.3346C36.505 44.0034 36.2612 44.6322 35.8172 45.1048L35.0731 45.895C34.6299 46.3691 34.0435 46.631 33.423 46.631ZM34.1595 42.3485C33.9142 42.3485 33.6836 42.4505 33.5099 42.636L32.8373 43.3542C32.4698 43.7471 32.4142 44.3751 32.7144 44.7543C33.0541 45.182 33.6933 45.2202 34.0685 44.8196L34.8133 44.0283C34.9863 43.8435 35.0822 43.5968 35.0822 43.3342C35.0828 43.0719 34.987 42.8256 34.8133 42.6405C34.8056 42.6319 34.7973 42.623 34.7897 42.6141L34.7862 42.61C34.6361 42.4509 34.4054 42.3485 34.1595 42.3485Z" fill="url(#paint13_linear_86_20)"/>
<path d="M27.7693 9.23215H12.1598C11.7666 9.23215 11.4484 8.89197 11.4484 8.4724C11.4484 8.05283 11.7666 7.71265 12.1598 7.71265H27.7693C28.1625 7.71265 28.4807 8.05283 28.4807 8.4724C28.4807 8.89197 28.1625 9.23215 27.7693 9.23215Z" fill="url(#paint14_linear_86_20)"/>
<path d="M27.7693 13.9053H12.1598C11.7666 13.9053 11.4484 13.5651 11.4484 13.1455C11.4484 12.7259 11.7666 12.3857 12.1598 12.3857H27.7693C28.1625 12.3857 28.4807 12.7259 28.4807 13.1455C28.4807 13.5651 28.1625 13.9053 27.7693 13.9053Z" fill="url(#paint15_linear_86_20)"/>
<path d="M27.7693 46.6296H12.1598C11.7666 46.6296 11.4484 46.2894 11.4484 45.8699C11.4484 45.4503 11.7666 45.1101 12.1598 45.1101H27.7693C28.1625 45.1101 28.4807 45.4503 28.4807 45.8699C28.4807 46.2894 28.1625 46.6296 27.7693 46.6296Z" fill="url(#paint16_linear_86_20)"/>
<defs>
<linearGradient id="paint0_linear_86_20" x1="38.3838" y1="18.5836" x2="39.8067" y2="18.5836" gradientUnits="userSpaceOnUse">
<stop stop-color="#BF5331"/>
<stop offset="1" stop-color="#EF6A5A"/>
</linearGradient>
<linearGradient id="paint1_linear_86_20" x1="8" y1="27.1562" x2="39.8081" y2="27.1562" gradientUnits="userSpaceOnUse">
<stop stop-color="#BF5331"/>
<stop offset="1" stop-color="#EF6A5A"/>
</linearGradient>
<linearGradient id="paint2_linear_86_20" x1="30.3334" y1="9.26742" x2="39.8085" y2="9.26742" gradientUnits="userSpaceOnUse">
<stop stop-color="#BF5331"/>
<stop offset="1" stop-color="#EF6A5A"/>
</linearGradient>
<linearGradient id="paint3_linear_86_20" x1="35.9875" y1="36.8538" x2="45.055" y2="36.8538" gradientUnits="userSpaceOnUse">
<stop stop-color="#BF5331"/>
<stop offset="1" stop-color="#EF6A5A"/>
</linearGradient>
<linearGradient id="paint4_linear_86_20" x1="33.6805" y1="39.3188" x2="42.748" y2="39.3188" gradientUnits="userSpaceOnUse">
<stop stop-color="#BF5331"/>
<stop offset="1" stop-color="#EF6A5A"/>
</linearGradient>
<linearGradient id="paint5_linear_86_20" x1="24.2588" y1="30.7361" x2="47.3491" y2="30.7361" gradientUnits="userSpaceOnUse">
<stop stop-color="#BF5331"/>
<stop offset="1" stop-color="#EF6A5A"/>
</linearGradient>
<linearGradient id="paint6_linear_86_20" x1="33.6805" y1="41.7864" x2="40.4186" y2="41.7864" gradientUnits="userSpaceOnUse">
<stop stop-color="#BF5331"/>
<stop offset="1" stop-color="#EF6A5A"/>
</linearGradient>
<linearGradient id="paint7_linear_86_20" x1="20.6628" y1="24.9369" x2="32.8977" y2="24.9369" gradientUnits="userSpaceOnUse">
<stop stop-color="#BF5331"/>
<stop offset="1" stop-color="#EF6A5A"/>
</linearGradient>
<linearGradient id="paint8_linear_86_20" x1="40.7624" y1="24.6107" x2="52.9971" y2="24.6107" gradientUnits="userSpaceOnUse">
<stop stop-color="#BF5331"/>
<stop offset="1" stop-color="#EF6A5A"/>
</linearGradient>
<linearGradient id="paint9_linear_86_20" x1="32.3376" y1="28.9813" x2="49.4488" y2="28.9813" gradientUnits="userSpaceOnUse">
<stop stop-color="#BF5331"/>
<stop offset="1" stop-color="#EF6A5A"/>
</linearGradient>
<linearGradient id="paint10_linear_86_20" x1="24.1723" y1="36.3412" x2="29.5784" y2="36.3412" gradientUnits="userSpaceOnUse">
<stop stop-color="#BF5331"/>
<stop offset="1" stop-color="#EF6A5A"/>
</linearGradient>
<linearGradient id="paint11_linear_86_20" x1="26.4832" y1="38.8093" x2="31.8839" y2="38.8093" gradientUnits="userSpaceOnUse">
<stop stop-color="#BF5331"/>
<stop offset="1" stop-color="#EF6A5A"/>
</linearGradient>
<linearGradient id="paint12_linear_86_20" x1="28.7871" y1="41.2628" x2="34.1935" y2="41.2628" gradientUnits="userSpaceOnUse">
<stop stop-color="#BF5331"/>
<stop offset="1" stop-color="#EF6A5A"/>
</linearGradient>
<linearGradient id="paint13_linear_86_20" x1="31.098" y1="43.7421" x2="36.505" y2="43.7421" gradientUnits="userSpaceOnUse">
<stop stop-color="#BF5331"/>
<stop offset="1" stop-color="#EF6A5A"/>
</linearGradient>
<linearGradient id="paint14_linear_86_20" x1="11.4484" y1="8.4724" x2="28.4807" y2="8.4724" gradientUnits="userSpaceOnUse">
<stop stop-color="#BF5331"/>
<stop offset="1" stop-color="#EF6A5A"/>
</linearGradient>
<linearGradient id="paint15_linear_86_20" x1="11.4484" y1="13.1455" x2="28.4807" y2="13.1455" gradientUnits="userSpaceOnUse">
<stop stop-color="#BF5331"/>
<stop offset="1" stop-color="#EF6A5A"/>
</linearGradient>
<linearGradient id="paint16_linear_86_20" x1="11.4484" y1="45.8699" x2="28.4807" y2="45.8699" gradientUnits="userSpaceOnUse">
<stop stop-color="#BF5331"/>
<stop offset="1" stop-color="#EF6A5A"/>
</linearGradient>
</defs>
</svg>
