<svg width="33" height="33" viewBox="0 0 33 33" fill="none" xmlns="http://www.w3.org/2000/svg">
<path d="M33 9.84626V9.83595H31.1815H31.1807V7.19891L30.0095 6.77088C27.9284 6.00975 25.746 5.62329 23.5194 5.62329C21.2927 5.62329 19.1104 6.00975 17.0293 6.77088L16.5 6.96405L15.9708 6.77094C13.8899 6.00982 11.7078 5.62336 9.48093 5.62336C7.25426 5.62336 5.07195 6.00982 2.99108 6.77094L1.81958 7.19898V9.83021V9.83601H0.0213984H0.0105703H0V25.6937C0 26.0485 0.287525 26.3358 0.642275 26.3358H14.9657L15.3852 27.3766H17.6148L18.0346 26.3358H32.358C32.7127 26.3358 33 26.0485 33 25.6937V9.89466V9.84626ZM17.6418 23.1574C17.6418 18.7169 17.6448 14.2764 17.6418 9.83595V8.44466C19.5355 7.75205 21.5273 7.4071 23.5193 7.4071C25.5111 7.4071 27.5031 7.75198 29.3969 8.44466V9.83595V19.4556L29.3934 23.1596C27.5006 22.4678 25.5098 22.1234 23.5193 22.1234C21.7152 22.1234 19.912 22.4094 18.1808 22.9774C18.0006 23.0353 17.8205 23.0936 17.6418 23.1574ZM15.3585 9.83595V19.3551L15.355 23.1596C13.4622 22.4678 11.4717 22.1234 9.48093 22.1234C7.67746 22.1234 5.87484 22.4091 4.1444 22.9766C3.96361 23.0347 3.78282 23.0934 3.60338 23.1574V9.83595V8.44466C5.49714 7.75205 7.4892 7.4071 9.48093 7.4071C11.4729 7.4071 13.4647 7.75198 15.3585 8.44466V9.83595Z" fill="#8A8A8A"/>
</svg>
