<svg width="79" height="78" viewBox="0 0 79 78" fill="none" xmlns="http://www.w3.org/2000/svg">
<g clip-path="url(#clip0_86_166)">
<path d="M70.1557 65.9416L69.5947 62.7362C69.1128 59.9768 67.1685 57.5782 64.3941 56.3207L52.5833 50.9628C51.1332 50.3064 50.7186 48.2305 50.6768 48.1183C50.5489 47.9315 50.3324 47.819 49.9999 47.819C49.99 47.819 49.9798 47.819 49.97 47.819C49.687 47.8545 49.4552 48.0438 49.3787 48.3027L48.0158 53.0257L39.5002 68.2835L31.0058 53.0764L29.6201 48.3027C29.5463 48.045 29.3139 47.8545 28.925 47.8119C28.6799 47.8119 28.4548 47.9266 28.2849 48.2094C28.2809 48.2307 27.8708 50.3041 26.4167 50.9628L14.604 56.3207C11.8307 57.5793 9.88703 59.9767 9.40486 62.7362L8.84383 65.9416C8.6235 67.1976 8.93703 68.9529 10.1461 69.84C10.2884 69.9453 10.4669 70.1015 10.6929 70.3001C12.867 72.2044 19.4828 78 39.5002 78C59.5137 78 66.1312 72.2044 68.3058 70.3001C68.5322 70.1027 68.7113 69.9453 68.8539 69.84C70.0634 68.9517 70.3767 67.1964 70.1557 65.9416Z" fill="url(#paint0_linear_86_166)"/>
<path d="M45.1284 19.0937C47.9906 24.3972 51.9104 31.6631 53.6212 32.7181L53.9459 32.918L55.1358 23.7443C55.462 19.7145 54.1499 15.9001 51.4417 13.0034C48.4813 9.83712 44.1288 8.02148 39.5002 8.02148C34.8712 8.02148 30.5185 9.83712 27.5582 13.0034C24.8497 15.8989 23.5372 19.7145 23.864 23.7537L24.9466 32.8352L25.3087 32.4449C26.0556 31.6418 27.4016 30.8033 29.1053 29.7411C33.0458 27.2857 38.9683 23.5954 43.62 16.3154C44.0508 17.096 44.5639 18.0469 45.1284 19.0937Z" fill="url(#paint1_linear_86_166)"/>
<path d="M15.7549 36.9715C15.9545 37.7912 16.6894 38.3637 17.542 38.3637C17.6861 38.3637 17.8304 38.3458 17.9717 38.3128L21.0694 37.5782C21.6603 37.4386 22.1387 37.0163 22.3533 36.4545L22.4809 36.4627L22.4229 36.2333C22.4926 35.9447 22.4945 35.662 22.4286 35.3899L20.8137 28.7911C20.4264 26.4906 20.23 24.5237 20.23 22.9422C20.23 12.4509 28.8747 3.916 39.5002 3.916C50.1253 3.916 58.7698 12.4509 58.7698 22.9422C58.7698 24.5225 58.5734 26.4906 58.1579 28.8644L56.5713 35.3899C56.548 35.487 56.5336 35.5851 56.528 35.688L56.4648 35.8276C56.4438 35.8738 54.3082 40.4334 47.6745 41.719C47.3301 41.0911 46.6659 40.6947 45.9316 40.6947H41.9347C40.8413 40.6947 39.9518 41.5735 39.9518 42.6534V44.1969C39.9518 45.2767 40.8413 46.1556 41.9347 46.1556H45.9316C46.7629 46.1556 47.5051 45.6327 47.7881 44.8652C51.7584 44.1934 54.4139 42.5435 55.9482 41.2684C57.5379 39.9485 58.4882 38.5964 58.9545 37.8218L61.0284 38.3126C61.1695 38.3457 61.3139 38.3635 61.458 38.3635C62.3106 38.3635 63.0452 37.791 63.2447 36.9714L64.8315 30.4459C65.0678 29.4724 64.4583 28.4907 63.4728 28.2566L62.3273 27.9857C62.5992 26.0767 62.7371 24.3806 62.7371 22.9422C62.7368 10.2926 52.3128 0 39.5002 0C26.6875 0 16.2635 10.2926 16.2635 22.9425C16.2635 24.3808 16.4013 26.0768 16.6732 27.9848L15.5267 28.2569C14.5411 28.491 13.9319 29.4727 14.1686 30.4462L15.7549 36.9715Z" fill="url(#paint2_linear_86_166)"/>
</g>
<defs>
<linearGradient id="paint0_linear_86_166" x1="8.77852" y1="62.906" x2="70.2213" y2="62.906" gradientUnits="userSpaceOnUse">
<stop stop-color="#BF5331"/>
<stop offset="1" stop-color="#EF6A5A"/>
</linearGradient>
<linearGradient id="paint1_linear_86_166" x1="23.8149" y1="20.4697" x2="55.1848" y2="20.4697" gradientUnits="userSpaceOnUse">
<stop stop-color="#BF5331"/>
<stop offset="1" stop-color="#EF6A5A"/>
</linearGradient>
<linearGradient id="paint2_linear_86_166" x1="14.1176" y1="23.0778" x2="64.8824" y2="23.0778" gradientUnits="userSpaceOnUse">
<stop stop-color="#BF5331"/>
<stop offset="1" stop-color="#EF6A5A"/>
</linearGradient>
<clipPath id="clip0_86_166">
<rect width="79" height="78" fill="white"/>
</clipPath>
</defs>
</svg>
