<svg width="53" height="53" viewBox="0 0 53 53" fill="none" xmlns="http://www.w3.org/2000/svg">
<path d="M39.0952 24.5678C38.702 24.5678 38.3838 24.2277 38.3838 23.8081V13.3589C38.3838 12.9393 38.702 12.5991 39.0952 12.5991C39.4885 12.5991 39.8067 12.9393 39.8067 13.3589V23.8081C39.8067 24.2277 39.4885 24.5678 39.0952 24.5678Z" fill="url(#paint0_linear_1_2429)"/>
<path d="M37.8655 50.3125H9.94258C8.87124 50.3125 8 49.3817 8 48.238V6.06942C8 4.9283 8.86986 3.99976 9.93842 3.99976H31.0442C31.4375 3.99976 31.7557 4.33994 31.7557 4.75951C31.7557 5.17908 31.4375 5.51926 31.0442 5.51926H9.93842C9.65425 5.51926 9.42289 5.76596 9.42289 6.06942V48.238C9.42289 48.5441 9.65634 48.793 9.94258 48.793H37.8655C38.1517 48.793 38.3852 48.5441 38.3852 48.238V45.738C38.3852 45.3184 38.7034 44.9783 39.0966 44.9783C39.4899 44.9783 39.8081 45.3184 39.8081 45.738V48.238C39.8081 49.3817 38.9368 50.3125 37.8655 50.3125Z" fill="url(#paint1_linear_1_2429)"/>
<path d="M32.6533 14.5348C31.3548 14.5348 30.3335 13.4434 30.3335 12.102V4.75894C30.3335 4.45177 30.5065 4.17465 30.7726 4.05706C31.0394 3.9402 31.3444 4.00438 31.548 4.22177L39.6004 12.8209C39.7984 13.0324 39.8616 13.3481 39.7623 13.6274C39.6636 13.9072 39.4197 14.0986 39.1404 14.1164L32.6561 14.5348H32.6533ZM31.7564 6.59303V12.102C31.7564 12.6065 32.1406 13.0168 32.613 13.0168L37.4765 12.7019L31.7564 6.59303Z" fill="url(#paint2_linear_1_2429)"/>
<path d="M42.7113 41.6956C42.0853 41.6956 41.4962 41.4356 41.0536 40.9629L36.1957 35.7745C35.9178 35.4777 35.9178 34.9969 36.1957 34.7002C36.4736 34.4034 36.9239 34.4034 37.2018 34.7002L42.0596 39.8882C42.407 40.2592 43.0149 40.2599 43.3623 39.8882C43.5367 39.7024 43.6319 39.4553 43.6319 39.1926C43.6319 38.93 43.5367 38.6829 43.3623 38.4974L38.5045 33.3094C38.2266 33.0126 38.2266 32.5318 38.5045 32.235C38.7824 31.9383 39.2326 31.9383 39.5105 32.235L44.3683 37.4227C44.8109 37.8954 45.0548 38.5238 45.0548 39.1926C45.0548 39.8615 44.8109 40.4899 44.3683 40.9629C43.9258 41.4352 43.3373 41.6956 42.7113 41.6956Z" fill="url(#paint3_linear_1_2429)"/>
<path d="M40.4044 44.1603C39.7784 44.1603 39.1893 43.8999 38.7474 43.4265L33.8889 38.2392C33.6109 37.9428 33.6109 37.4617 33.8889 37.1649C34.1668 36.8681 34.617 36.8681 34.8949 37.1649L39.7534 42.3526C40.1022 42.7243 40.7067 42.7239 41.0554 42.3529C41.2298 42.1667 41.325 41.9197 41.325 41.657C41.325 41.3947 41.2298 41.1477 41.0554 40.9622L36.1976 35.7737C35.9197 35.477 35.9197 34.9962 36.1976 34.6994C36.4755 34.4026 36.9257 34.4026 37.2036 34.6994L42.0615 39.8875C42.504 40.3601 42.7479 40.9885 42.7479 41.657C42.7479 42.3259 42.504 42.9543 42.0615 43.4273C41.6196 43.8999 41.0304 44.1603 40.4044 44.1603Z" fill="url(#paint4_linear_1_2429)"/>
<path d="M45.0221 39.2288C44.4023 39.2288 43.7972 38.9621 43.3616 38.4965L38.5044 33.3096C38.2265 33.0128 38.2265 32.532 38.5044 32.2352C38.7823 31.9385 39.2325 31.9385 39.5105 32.2352L44.3676 37.4222C44.7657 37.8473 45.5043 37.7627 45.8086 37.2389C46.0274 36.8642 45.935 36.3089 45.5953 35.9465L39.1443 29.066L37.3636 30.9591C36.5834 31.793 35.5419 32.2527 34.4338 32.2527C33.5576 32.246 32.8316 31.714 32.5051 30.8645C32.1674 29.9842 32.3508 28.9862 32.9726 28.3218L35.5329 25.5837C35.2327 25.4357 34.9201 25.3281 34.604 25.2654C33.5507 25.0565 32.6524 24.6447 31.9277 24.0401L25.9659 30.4145C26.5238 31.0789 26.9274 31.8802 27.14 32.7442L27.229 33.107C27.2943 33.3712 27.3881 33.636 27.509 33.8935C27.6847 34.2689 27.5423 34.7252 27.1907 34.9129C26.8392 35.101 26.4126 34.9482 26.2361 34.5731C26.0722 34.2225 25.9429 33.8594 25.8526 33.4936L25.763 33.1293C25.5962 32.4478 25.2648 31.8197 24.8056 31.3134L24.4596 30.9327C24.1893 30.6349 24.1921 30.1604 24.4665 29.8669L31.3879 22.4668C31.6554 22.1815 32.0826 22.1689 32.3647 22.436L32.6287 22.6867C33.195 23.2247 33.9474 23.5897 34.8638 23.7711C35.6579 23.9288 36.4333 24.2919 37.1058 24.8213C37.2851 24.9619 37.3921 25.1838 37.3956 25.4208C37.399 25.6579 37.299 25.8831 37.1246 26.0296L33.9787 29.3962C33.7174 29.6751 33.7265 30.0398 33.8217 30.2884C33.8731 30.4212 34.0322 30.7302 34.4122 30.7332C35.1619 30.7332 35.8462 30.4316 36.359 29.8836L38.1411 27.9894C38.6948 27.4 39.5966 27.4007 40.1503 27.9909L46.6013 34.8714C47.41 35.7343 47.5851 37.0675 47.0168 38.0413C46.5846 38.7844 45.8384 39.2288 45.0221 39.2288Z" fill="url(#paint5_linear_1_2429)"/>
<path d="M38.0929 46.6309C37.4683 46.6309 36.8792 46.369 36.4345 45.893L35.1651 44.5382C34.8872 44.2418 34.8872 43.7606 35.1651 43.4639C35.4431 43.1671 35.8933 43.1671 36.1712 43.4639L37.4405 44.819C37.8115 45.2156 38.4563 45.1889 38.8065 44.7497C39.101 44.3742 39.0468 43.7473 38.6821 43.357L33.8889 38.2391C33.6109 37.9427 33.6109 37.4615 33.8889 37.1647C34.1668 36.8679 34.617 36.8679 34.8949 37.1647L39.6881 42.2827C40.576 43.2316 40.6664 44.7463 39.8931 45.7309C39.4345 46.3048 38.7801 46.6309 38.0929 46.6309Z" fill="url(#paint6_linear_1_2429)"/>
<path d="M24.2602 31.4781C24.2595 31.4781 24.2581 31.4781 24.2574 31.4781C23.8009 31.4774 23.3716 31.2867 23.0499 30.9406L20.8697 28.5975C20.5932 28.3004 20.5939 27.8207 20.8711 27.5247L29.2111 18.6183C29.3445 18.4759 29.5252 18.3958 29.7141 18.3958C29.9024 18.3958 30.0844 18.4763 30.2178 18.6191L32.4008 20.9558C33.0636 21.6659 33.0629 22.8204 32.4001 23.5297L25.467 30.9439C25.1446 31.2886 24.7159 31.4781 24.2602 31.4781ZM22.3787 28.0637L24.0587 29.8692C24.1309 29.9471 24.2157 29.9586 24.2595 29.9586C24.3032 29.9586 24.388 29.9471 24.4603 29.87L31.3927 22.4561C31.5032 22.3381 31.5032 22.1463 31.3934 22.0287L29.7134 20.2306L22.3787 28.0637Z" fill="url(#paint7_linear_1_2429)"/>
<path d="M49.4001 31.1515C48.9437 31.1515 48.515 30.9615 48.1926 30.6169L41.2595 23.2026C40.596 22.4922 40.5967 21.3377 41.2602 20.6284L43.4418 18.2924C43.5752 18.1496 43.7558 18.0691 43.9448 18.0691C44.1338 18.0691 44.3151 18.1492 44.4485 18.2917L52.7885 27.198C53.0658 27.4941 53.0665 27.9737 52.7899 28.2705L50.6104 30.6136C50.2881 30.9604 49.8365 31.1685 49.4001 31.1515ZM43.9462 19.9039L42.2669 21.702C42.1564 21.82 42.1571 22.0114 42.2669 22.1294L49.2 29.5433C49.2716 29.6205 49.3564 29.632 49.4001 29.632C49.4092 29.6338 49.5287 29.6216 49.6016 29.5426L51.2809 27.737L43.9462 19.9039Z" fill="url(#paint8_linear_1_2429)"/>
<path d="M45.9525 36.0132C45.7704 36.0132 45.5884 35.939 45.4494 35.791L39.143 29.0652L37.363 30.9594C36.5827 31.793 35.5413 32.2526 34.4331 32.2526C33.557 32.246 32.831 31.714 32.5044 30.8644C32.1668 29.9841 32.3502 28.9862 32.972 28.3218L36.0728 25.0016C36.9023 24.1168 37.9473 23.5555 39.0978 23.376C39.9295 23.2361 40.7146 22.8095 41.3016 22.1755C41.435 22.0316 41.6164 21.9503 41.806 21.95H41.8074C41.9964 21.95 42.1778 22.0301 42.3111 22.1733L49.2408 29.5905C49.3756 29.7348 49.4506 29.9311 49.4485 30.1355C49.4465 30.3395 49.3673 30.5339 49.2297 30.6753L49.0602 30.8489C48.5578 31.3619 48.2 32.0126 48.025 32.7308L47.9277 33.1289C47.6769 34.1016 47.1398 35.0698 46.452 35.7943C46.3137 35.9401 46.1331 36.0132 45.9525 36.0132ZM39.1444 27.5476C39.5077 27.5476 39.8718 27.6949 40.1483 27.9898L45.9115 34.1361C46.2033 33.7024 46.4305 33.2105 46.5534 32.7353L46.6479 32.3469C46.8487 31.5266 47.2218 30.7699 47.7373 30.1321L41.7748 23.7507C41.0619 24.3342 40.2088 24.7274 39.3111 24.878C38.4579 25.0112 37.6895 25.4245 37.0809 26.0741L33.978 29.3961C33.7168 29.6751 33.7258 30.0398 33.821 30.2883C33.8724 30.4211 34.0315 30.7302 34.4116 30.7331C35.1612 30.7331 35.8456 30.4315 36.3583 29.8836L38.1418 27.9883C38.4176 27.6945 38.781 27.5476 39.1444 27.5476Z" fill="url(#paint9_linear_1_2429)"/>
<path d="M26.4962 39.226C25.8139 39.226 25.1678 38.9122 24.7231 38.3654C23.9207 37.3775 24.0047 35.8435 24.9135 34.8727L25.5763 34.1645C26.4615 33.2192 28.0045 33.22 28.8883 34.1645L28.8939 34.17C29.8068 35.1453 29.8068 36.7316 28.8939 37.7069L28.1546 38.4963C27.7141 38.9671 27.125 39.226 26.4962 39.226ZM27.2327 34.9513C26.9867 34.9513 26.756 35.0537 26.5823 35.2392L25.9195 35.947C25.5423 36.3499 25.4881 36.9879 25.7979 37.3693C26.1349 37.7841 26.7887 37.8078 27.1486 37.422L27.8878 36.6326C28.2456 36.2497 28.2456 35.6272 27.8878 35.2444C27.6995 35.0496 27.473 34.9513 27.2327 34.9513Z" fill="url(#paint10_linear_1_2429)"/>
<path d="M28.807 41.6941C28.124 41.6941 27.4779 41.3799 27.0339 40.8323C26.2315 39.8455 26.3155 38.3116 27.2243 37.3407L27.8878 36.6322C28.7716 35.6884 30.3146 35.6877 31.1998 36.6322C32.1113 37.606 32.112 39.1915 31.2019 40.1668L30.4598 40.9633C30.018 41.4348 29.4316 41.6941 28.807 41.6941ZM29.5434 37.4194C29.2982 37.4194 29.0675 37.5214 28.8938 37.7069L28.2303 38.4154C27.8531 38.8176 27.7989 39.4556 28.1087 39.8374C28.4422 40.2492 29.0884 40.2788 29.4524 39.8901L30.1938 39.0943C30.5516 38.7115 30.5516 38.089 30.1938 37.7069C30.0201 37.5214 29.7894 37.4194 29.5434 37.4194Z" fill="url(#paint11_linear_1_2429)"/>
<path d="M31.1112 44.1627C30.4226 44.1627 29.7689 43.8374 29.318 43.2698C28.5398 42.2893 28.6267 40.775 29.516 39.822L30.1899 39.0986C30.6325 38.6245 31.2209 38.3633 31.8469 38.3625C31.8476 38.3625 31.8483 38.3625 31.849 38.3625C32.4743 38.3625 33.0628 38.6226 33.5054 39.0949C33.5054 39.0952 33.5088 39.0989 33.5088 39.0989C34.4218 40.0742 34.4218 41.6605 33.5088 42.6358L32.7696 43.4252C32.3242 43.9008 31.7351 44.1627 31.1112 44.1627ZM31.849 39.8821C31.6031 39.8824 31.3717 39.9848 31.198 40.1707L30.5241 40.8941C30.1586 41.2858 30.1044 41.9105 30.4032 42.2871C30.7457 42.7178 31.3919 42.7486 31.7636 42.3509L32.5028 41.5615C32.8606 41.1786 32.8606 40.5561 32.5028 40.1733L32.4993 40.1696C32.3256 39.9841 32.095 39.8821 31.849 39.8821Z" fill="url(#paint12_linear_1_2429)"/>
<path d="M33.4231 46.6311C32.7339 46.6311 32.0794 46.3046 31.6285 45.7359C30.849 44.7514 30.9386 43.2337 31.8314 42.2796L32.5039 41.5614C33.3877 40.6176 34.9308 40.6169 35.8159 41.5614L35.3163 42.103L35.8194 41.5654C36.2619 42.0377 36.5058 42.6661 36.5051 43.3346C36.5051 44.0035 36.2612 44.6323 35.8173 45.1049L35.0732 45.8951C34.6299 46.3692 34.0435 46.6311 33.4231 46.6311ZM34.1596 42.3486C33.9143 42.3486 33.6836 42.4506 33.5099 42.6361L32.8374 43.3543C32.4699 43.7471 32.4143 44.3752 32.7144 44.7543C33.0542 45.1821 33.6934 45.2203 34.0685 44.8196L34.8133 44.0283C34.9863 43.8436 35.0822 43.5969 35.0822 43.3343C35.0829 43.072 34.987 42.8256 34.8133 42.6405C34.8057 42.632 34.7974 42.6231 34.7897 42.6142L34.7862 42.6101C34.6362 42.451 34.4055 42.3486 34.1596 42.3486Z" fill="url(#paint13_linear_1_2429)"/>
<path d="M27.7694 9.23215H12.1599C11.7667 9.23215 11.4485 8.89197 11.4485 8.4724C11.4485 8.05283 11.7667 7.71265 12.1599 7.71265H27.7694C28.1626 7.71265 28.4808 8.05283 28.4808 8.4724C28.4808 8.89197 28.1626 9.23215 27.7694 9.23215Z" fill="url(#paint14_linear_1_2429)"/>
<path d="M27.7694 13.905H12.1599C11.7667 13.905 11.4485 13.5648 11.4485 13.1453C11.4485 12.7257 11.7667 12.3855 12.1599 12.3855H27.7694C28.1626 12.3855 28.4808 12.7257 28.4808 13.1453C28.4808 13.5648 28.1626 13.905 27.7694 13.905Z" fill="url(#paint15_linear_1_2429)"/>
<path d="M27.7694 46.6296H12.1599C11.7667 46.6296 11.4485 46.2894 11.4485 45.8699C11.4485 45.4503 11.7667 45.1101 12.1599 45.1101H27.7694C28.1626 45.1101 28.4808 45.4503 28.4808 45.8699C28.4808 46.2894 28.1626 46.6296 27.7694 46.6296Z" fill="url(#paint16_linear_1_2429)"/>
<defs>
<linearGradient id="paint0_linear_1_2429" x1="38.3838" y1="18.5835" x2="39.8067" y2="18.5835" gradientUnits="userSpaceOnUse">
<stop stop-color="#BF5331"/>
<stop offset="1" stop-color="#EF6A5A"/>
</linearGradient>
<linearGradient id="paint1_linear_1_2429" x1="8" y1="27.1561" x2="39.8081" y2="27.1561" gradientUnits="userSpaceOnUse">
<stop stop-color="#BF5331"/>
<stop offset="1" stop-color="#EF6A5A"/>
</linearGradient>
<linearGradient id="paint2_linear_1_2429" x1="30.3335" y1="9.26717" x2="39.8086" y2="9.26717" gradientUnits="userSpaceOnUse">
<stop stop-color="#BF5331"/>
<stop offset="1" stop-color="#EF6A5A"/>
</linearGradient>
<linearGradient id="paint3_linear_1_2429" x1="35.9873" y1="36.854" x2="45.0548" y2="36.854" gradientUnits="userSpaceOnUse">
<stop stop-color="#BF5331"/>
<stop offset="1" stop-color="#EF6A5A"/>
</linearGradient>
<linearGradient id="paint4_linear_1_2429" x1="33.6804" y1="39.3186" x2="42.7479" y2="39.3186" gradientUnits="userSpaceOnUse">
<stop stop-color="#BF5331"/>
<stop offset="1" stop-color="#EF6A5A"/>
</linearGradient>
<linearGradient id="paint5_linear_1_2429" x1="24.2588" y1="30.7364" x2="47.349" y2="30.7364" gradientUnits="userSpaceOnUse">
<stop stop-color="#BF5331"/>
<stop offset="1" stop-color="#EF6A5A"/>
</linearGradient>
<linearGradient id="paint6_linear_1_2429" x1="33.6804" y1="41.7865" x2="40.4185" y2="41.7865" gradientUnits="userSpaceOnUse">
<stop stop-color="#BF5331"/>
<stop offset="1" stop-color="#EF6A5A"/>
</linearGradient>
<linearGradient id="paint7_linear_1_2429" x1="20.6627" y1="24.9369" x2="32.8976" y2="24.9369" gradientUnits="userSpaceOnUse">
<stop stop-color="#BF5331"/>
<stop offset="1" stop-color="#EF6A5A"/>
</linearGradient>
<linearGradient id="paint8_linear_1_2429" x1="40.7622" y1="24.6108" x2="52.9969" y2="24.6108" gradientUnits="userSpaceOnUse">
<stop stop-color="#BF5331"/>
<stop offset="1" stop-color="#EF6A5A"/>
</linearGradient>
<linearGradient id="paint9_linear_1_2429" x1="32.3374" y1="28.9816" x2="49.4486" y2="28.9816" gradientUnits="userSpaceOnUse">
<stop stop-color="#BF5331"/>
<stop offset="1" stop-color="#EF6A5A"/>
</linearGradient>
<linearGradient id="paint10_linear_1_2429" x1="24.1725" y1="36.3409" x2="29.5786" y2="36.3409" gradientUnits="userSpaceOnUse">
<stop stop-color="#BF5331"/>
<stop offset="1" stop-color="#EF6A5A"/>
</linearGradient>
<linearGradient id="paint11_linear_1_2429" x1="26.4833" y1="38.8091" x2="31.884" y2="38.8091" gradientUnits="userSpaceOnUse">
<stop stop-color="#BF5331"/>
<stop offset="1" stop-color="#EF6A5A"/>
</linearGradient>
<linearGradient id="paint12_linear_1_2429" x1="28.7871" y1="41.2626" x2="34.1935" y2="41.2626" gradientUnits="userSpaceOnUse">
<stop stop-color="#BF5331"/>
<stop offset="1" stop-color="#EF6A5A"/>
</linearGradient>
<linearGradient id="paint13_linear_1_2429" x1="31.098" y1="43.7422" x2="36.5051" y2="43.7422" gradientUnits="userSpaceOnUse">
<stop stop-color="#BF5331"/>
<stop offset="1" stop-color="#EF6A5A"/>
</linearGradient>
<linearGradient id="paint14_linear_1_2429" x1="11.4485" y1="8.4724" x2="28.4808" y2="8.4724" gradientUnits="userSpaceOnUse">
<stop stop-color="#BF5331"/>
<stop offset="1" stop-color="#EF6A5A"/>
</linearGradient>
<linearGradient id="paint15_linear_1_2429" x1="11.4485" y1="13.1453" x2="28.4808" y2="13.1453" gradientUnits="userSpaceOnUse">
<stop stop-color="#BF5331"/>
<stop offset="1" stop-color="#EF6A5A"/>
</linearGradient>
<linearGradient id="paint16_linear_1_2429" x1="11.4485" y1="45.8699" x2="28.4808" y2="45.8699" gradientUnits="userSpaceOnUse">
<stop stop-color="#BF5331"/>
<stop offset="1" stop-color="#EF6A5A"/>
</linearGradient>
</defs>
</svg>
