<svg width="79" height="79" viewBox="0 0 79 79" fill="none" xmlns="http://www.w3.org/2000/svg">
<g clip-path="url(#clip0_1_2678)">
<path d="M71.5592 15.9476L62.0414 19.0122L69.4842 42.1274L79.002 39.0628L71.5592 15.9476Z" fill="url(#paint0_linear_1_2678)"/>
<path d="M58.9721 22.0285C58.5274 20.6784 57.2742 19.8159 55.9187 19.8159C55.6184 19.8159 55.3135 19.8588 55.0134 19.9449L47.7561 22.0835L46.0883 22.254L44.5629 21.9105C43.5021 21.0909 42.19 20.6357 40.7971 20.6357C40.3631 20.6357 39.9238 20.6786 39.5007 20.7749C39.4796 20.7749 39.4634 20.7803 39.4416 20.7857L34.439 21.9103L32.2964 22.3925L23.9879 19.9449C23.6876 19.8588 23.3827 19.8159 23.0826 19.8159C21.7277 19.8159 20.4685 20.6784 20.0292 22.0285L14.1852 39.8606C13.9231 40.6694 13.987 41.5585 14.3781 42.3192C14.7638 43.0799 15.4443 43.6585 16.2587 43.9213L19.4512 44.9495L19.6007 44.9976C19.7003 45.0387 19.8027 45.0772 19.901 45.1103C20.0402 45.5654 20.2385 46.0049 20.5062 46.4116C20.678 46.6744 20.8817 46.9257 21.1119 47.1567C21.1868 47.2368 21.2722 47.3169 21.3529 47.3923C21.8772 47.8527 22.4886 48.1903 23.1365 48.4042C23.1756 48.5374 23.2522 48.6603 23.3034 48.7906C23.3444 48.8959 23.389 48.999 23.4372 49.101C23.5535 49.347 23.6904 49.5801 23.8501 49.808C23.9291 49.92 24.0121 50.0293 24.1002 50.1348C24.1858 50.2372 24.2462 50.3536 24.3418 50.4505C24.915 51.0291 25.6058 51.4522 26.3665 51.6932C26.5919 52.4431 26.9933 53.1507 27.5773 53.745C28.1343 54.3181 28.8255 54.7359 29.5754 54.9769C29.9195 55.0902 30.2752 55.1632 30.6361 55.1976L35.3494 60.6662C36.3511 61.9891 37.8622 62.8353 39.5009 63.0173C39.7203 63.0445 39.9402 63.0547 40.1597 63.0547C41.4242 63.0547 42.6345 62.6694 43.6681 61.9299C44.4932 61.3405 45.1309 60.575 45.5539 59.7226C46.5285 59.5943 47.4501 59.2303 48.2589 58.6517C49.0733 58.0675 49.7212 57.3124 50.1551 56.4391C51.125 56.3107 52.0458 55.9467 52.8547 55.3735C53.6852 54.7791 54.3175 54.0126 54.7406 53.1615C55.7152 53.0325 56.6368 52.6685 57.4456 52.0897C59.7493 50.4455 60.5527 47.4668 59.551 44.9493L62.7435 43.9211C63.5578 43.6583 64.2322 43.0796 64.6233 42.319C65.0091 41.5584 65.0791 40.6694 64.8162 39.8605L58.9721 22.0285ZM39.1028 48.6123L39.0883 48.5918L37.3632 49.8196L37.3622 49.8202L37.3416 49.8347L42.9071 57.6236C42.7576 58.2824 42.3876 58.893 41.7987 59.3161C41.3003 59.67 40.7269 59.841 40.1593 59.841C39.2812 59.841 38.4131 59.4289 37.8618 58.6574L36.845 57.4778L34.102 54.1917C34.1616 54.1476 34.2213 54.1044 34.2779 54.0561C34.3424 54.0127 34.3955 53.9597 34.4546 53.906L35.1079 53.3701C36.0843 52.5758 36.5382 51.2979 36.2663 50.0697C36.1807 49.6852 36.0548 49.3289 35.8686 49.0794C35.3171 48.3349 34.4654 47.9439 33.603 47.9439C33.0189 47.9439 32.4301 48.1258 31.9209 48.5008L31.5827 48.7498L31.2971 48.9354C32.2633 48.1314 32.6435 46.7801 32.1252 45.6241C31.4332 44.0805 29.6859 43.5506 28.3082 44.2197C28.1611 44.2842 28.0178 44.357 27.8778 44.442C28.4413 43.4928 28.4239 42.2619 27.7242 41.32C26.7941 40.0694 25.0263 39.8089 23.7757 40.7383L21.6711 42.2885L21.1328 42.1161L17.2446 40.8642L17.2386 40.8623L23.0826 23.0302L31.6697 25.5533L32.1891 25.7088L36.2202 24.8017L39.1849 24.1538C37.8541 26.0029 35.2486 29.2686 33.9298 30.9983C30.8499 35.0378 31.6697 39.1447 35.9544 37.923C40.8655 36.5223 41.7496 30.4956 45.1792 30.2617L46.4811 30.2104L56.2348 45.5389C56.3265 45.6673 56.4067 45.8011 56.4711 45.9348C57.0708 47.1566 56.7224 48.6616 55.5814 49.4759C55.0884 49.8243 54.5261 49.9955 53.9637 50.0009L53.455 49.2883L48.2753 42.0297L46.555 43.263L46.5544 43.2635L46.5339 43.278L52.0193 50.9597L52.094 51.0663C51.9492 51.7202 51.5798 52.3309 50.9857 52.754C50.7125 52.9524 50.4178 53.0916 50.1069 53.1717C49.8659 53.2416 49.6194 53.2789 49.3734 53.2789L43.6843 45.3133L41.9696 46.5338L41.9588 46.5415L41.9383 46.556L47.4984 54.3451C47.3537 55.0039 46.9843 55.6143 46.3947 56.0376C45.9023 56.386 45.3395 56.5571 44.7771 56.5571L39.1253 48.6432L39.1028 48.6123Z" fill="url(#paint1_linear_1_2678)"/>
<path d="M16.954 19.0337H16.9534L16.9612 19.0101L7.44359 15.9453L0 39.0596L9.51811 42.1246L16.9366 19.086L16.954 19.0337Z" fill="url(#paint2_linear_1_2678)"/>
</g>
<defs>
<linearGradient id="paint0_linear_1_2678" x1="65.7628" y1="30.5698" x2="75.2806" y2="27.5052" gradientUnits="userSpaceOnUse">
<stop stop-color="#BF5331"/>
<stop offset="1" stop-color="#EF6A5A"/>
</linearGradient>
<linearGradient id="paint1_linear_1_2678" x1="14.0272" y1="41.4353" x2="64.973" y2="41.4353" gradientUnits="userSpaceOnUse">
<stop stop-color="#BF5331"/>
<stop offset="1" stop-color="#EF6A5A"/>
</linearGradient>
<linearGradient id="paint2_linear_1_2678" x1="0" y1="29.0349" x2="16.9612" y2="29.0349" gradientUnits="userSpaceOnUse">
<stop stop-color="#BF5331"/>
<stop offset="1" stop-color="#EF6A5A"/>
</linearGradient>
<clipPath id="clip0_1_2678">
<rect width="79" height="79" fill="white"/>
</clipPath>
</defs>
</svg>
