<svg width="79" height="78" viewBox="0 0 79 78" fill="none" xmlns="http://www.w3.org/2000/svg">
<g clip-path="url(#clip0_1_2622)">
<path d="M70.1558 65.9417L69.5947 62.7364C69.1129 59.977 67.1686 57.5783 64.3942 56.3209L52.5833 50.9629C51.1333 50.3065 50.7187 48.2307 50.6769 48.1184C50.5489 47.9316 50.3325 47.8192 50 47.8192C49.9901 47.8192 49.9799 47.8192 49.97 47.8192C49.687 47.8547 49.4553 48.0439 49.3788 48.3029L48.0159 53.0258L39.5002 68.2837L31.0059 53.0766L29.6201 48.3029C29.5464 48.0451 29.314 47.8547 28.925 47.812C28.68 47.812 28.4549 47.9267 28.285 48.2095C28.281 48.2308 27.8708 50.3042 26.4168 50.9629L14.6041 56.3209C11.8308 57.5794 9.88708 59.9768 9.4049 62.7364L8.84388 65.9417C8.62355 67.1978 8.93708 68.9531 10.1461 69.8402C10.2884 69.9454 10.4669 70.1016 10.693 70.3002C12.867 72.2045 19.4828 78.0001 39.5002 78.0001C59.5137 78.0001 66.1312 72.2045 68.3059 70.3002C68.5322 70.1028 68.7114 69.9454 68.854 69.8402C70.0635 68.9518 70.3767 67.1965 70.1558 65.9417Z" fill="url(#paint0_linear_1_2622)"/>
<path d="M45.1285 19.0937C47.9907 24.3972 51.9104 31.6631 53.6213 32.7181L53.9459 32.918L55.1359 23.7443C55.462 19.7145 54.1499 15.9001 51.4417 13.0034C48.4813 9.83712 44.1288 8.02148 39.5002 8.02148C34.8713 8.02148 30.5186 9.83712 27.5582 13.0034C24.8497 15.8989 23.5372 19.7145 23.864 23.7537L24.9466 32.8352L25.3087 32.4449C26.0557 31.6418 27.4016 30.8033 29.1054 29.7411C33.0458 27.2857 38.9683 23.5954 43.6201 16.3154C44.0509 17.096 44.5639 18.0469 45.1285 19.0937Z" fill="url(#paint1_linear_1_2622)"/>
<path d="M15.755 36.9715C15.9545 37.7912 16.6895 38.3637 17.5421 38.3637C17.6862 38.3637 17.8305 38.3458 17.9718 38.3128L21.0695 37.5782C21.6604 37.4386 22.1388 37.0163 22.3534 36.4545L22.481 36.4627L22.423 36.2333C22.4927 35.9447 22.4946 35.662 22.4287 35.3899L20.8138 28.7911C20.4265 26.4906 20.2301 24.5237 20.2301 22.9422C20.2301 12.4509 28.8748 3.916 39.5003 3.916C50.1254 3.916 58.7699 12.4509 58.7699 22.9422C58.7699 24.5225 58.5735 26.4906 58.158 28.8644L56.5714 35.3899C56.548 35.487 56.5337 35.5851 56.5281 35.688L56.4649 35.8276C56.4439 35.8738 54.3083 40.4334 47.6746 41.719C47.3302 41.0911 46.666 40.6947 45.9317 40.6947H41.9347C40.8414 40.6947 39.9519 41.5735 39.9519 42.6534V44.1969C39.9519 45.2767 40.8414 46.1556 41.9347 46.1556H45.9317C46.763 46.1556 47.5052 45.6327 47.7882 44.8652C51.7585 44.1934 54.414 42.5435 55.9483 41.2684C57.538 39.9485 58.4883 38.5964 58.9546 37.8218L61.0285 38.3126C61.1695 38.3457 61.314 38.3635 61.4581 38.3635C62.3107 38.3635 63.0453 37.791 63.2448 36.9714L64.8316 30.4459C65.0679 29.4724 64.4584 28.4907 63.4729 28.2566L62.3274 27.9857C62.5993 26.0767 62.7372 24.3806 62.7372 22.9422C62.7369 10.2926 52.3129 0 39.5003 0C26.6876 0 16.2636 10.2926 16.2636 22.9425C16.2636 24.3808 16.4014 26.0768 16.6733 27.9848L15.5268 28.2569C14.5412 28.491 13.932 29.4727 14.1687 30.4462L15.755 36.9715Z" fill="url(#paint2_linear_1_2622)"/>
</g>
<defs>
<linearGradient id="paint0_linear_1_2622" x1="8.77856" y1="62.9061" x2="70.2214" y2="62.9061" gradientUnits="userSpaceOnUse">
<stop stop-color="#BF5331"/>
<stop offset="1" stop-color="#EF6A5A"/>
</linearGradient>
<linearGradient id="paint1_linear_1_2622" x1="23.8149" y1="20.4697" x2="55.1848" y2="20.4697" gradientUnits="userSpaceOnUse">
<stop stop-color="#BF5331"/>
<stop offset="1" stop-color="#EF6A5A"/>
</linearGradient>
<linearGradient id="paint2_linear_1_2622" x1="14.1177" y1="23.0778" x2="64.8825" y2="23.0778" gradientUnits="userSpaceOnUse">
<stop stop-color="#BF5331"/>
<stop offset="1" stop-color="#EF6A5A"/>
</linearGradient>
<clipPath id="clip0_1_2622">
<rect width="79" height="78" fill="white"/>
</clipPath>
</defs>
</svg>
