<svg width="53" height="53" viewBox="0 0 53 53" fill="none" xmlns="http://www.w3.org/2000/svg">
<path d="M40.2539 3.3125H12.7462C11.868 3.3135 11.026 3.66282 10.405 4.28382C9.78404 4.90481 9.43472 5.74678 9.43372 6.625V46.375C9.43472 47.2532 9.78404 48.0952 10.405 48.7162C11.026 49.3372 11.868 49.6865 12.7462 49.6875H40.2539C41.1321 49.6866 41.9741 49.3373 42.5951 48.7163C43.2161 48.0952 43.5654 47.2532 43.5664 46.375V6.625C43.5654 5.74676 43.2161 4.90475 42.5951 4.28374C41.9741 3.66273 41.1321 3.31344 40.2539 3.3125ZM41.9101 46.375C41.9096 46.8141 41.735 47.2351 41.4245 47.5456C41.114 47.8561 40.693 48.0307 40.2539 48.0312H12.7462C12.3071 48.0308 11.8861 47.8562 11.5756 47.5457C11.265 47.2351 11.0904 46.8141 11.09 46.375V6.625C11.0904 6.18587 11.265 5.76485 11.5756 5.45434C11.8861 5.14383 12.3071 4.96919 12.7462 4.96875H40.2539C40.693 4.96925 41.114 5.14391 41.4245 5.45441C41.735 5.76491 41.9096 6.18589 41.9101 6.625V46.375Z" fill="url(#paint0_linear_1_1835)"/>
<path d="M15.8783 16.5265H20.2348C20.8935 16.5258 21.525 16.2638 21.9908 15.798C22.4565 15.3323 22.7185 14.7008 22.7192 14.0421V9.68555C22.7185 9.02687 22.4565 8.39538 21.9908 7.92962C21.525 7.46387 20.8935 7.20189 20.2348 7.20117H15.8783C15.2196 7.20189 14.5881 7.46387 14.1224 7.92962C13.6566 8.39538 13.3946 9.02687 13.3939 9.68555V14.0421C13.3946 14.7008 13.6566 15.3323 14.1224 15.798C14.5881 16.2638 15.2196 16.5258 15.8783 16.5265ZM15.0502 9.68555C15.0505 9.466 15.1378 9.25553 15.293 9.10029C15.4483 8.94505 15.6588 8.85771 15.8783 8.85742H20.2348C20.4544 8.85771 20.6649 8.94505 20.8201 9.10029C20.9753 9.25553 21.0627 9.466 21.063 9.68555V14.0421C21.0627 14.2616 20.9753 14.4721 20.8201 14.6274C20.6649 14.7826 20.4544 14.8699 20.2348 14.8702H15.8783C15.6588 14.8699 15.4483 14.7826 15.293 14.6274C15.1378 14.4721 15.0505 14.2616 15.0502 14.0421V9.68555Z" fill="url(#paint1_linear_1_1835)"/>
<path d="M38.7415 9.06445H25.2938C25.077 9.0688 24.8706 9.15796 24.7188 9.31279C24.5671 9.46763 24.482 9.67579 24.4821 9.8926C24.4821 10.1094 24.5671 10.3176 24.7188 10.4724C24.8706 10.6272 25.077 10.7164 25.2938 10.7207H38.7415C38.9583 10.7164 39.1647 10.6272 39.3164 10.4724C39.4682 10.3176 39.5532 10.1094 39.5532 9.89258C39.5532 9.67577 39.4682 9.46761 39.3164 9.31277C39.1647 9.15794 38.9583 9.06879 38.7415 9.06445Z" fill="url(#paint2_linear_1_1835)"/>
<path d="M35.8609 14.6633C36.0777 14.6591 36.2842 14.57 36.4361 14.4151C36.5879 14.2603 36.673 14.0521 36.673 13.8352C36.673 13.6183 36.5879 13.4101 36.4361 13.2552C36.2842 13.1004 36.0777 13.0113 35.8608 13.0071H25.2938C25.077 13.0113 24.8704 13.1004 24.7186 13.2553C24.5667 13.4101 24.4817 13.6184 24.4817 13.8352C24.4817 14.0521 24.5668 14.2603 24.7186 14.4152C24.8705 14.57 25.077 14.6591 25.2939 14.6633H35.8609Z" fill="url(#paint3_linear_1_1835)"/>
<path d="M38.7415 23.7007H25.2938C25.077 23.7049 24.8704 23.794 24.7186 23.9489C24.5667 24.1037 24.4817 24.312 24.4817 24.5288C24.4817 24.7457 24.5668 24.9539 24.7186 25.1088C24.8705 25.2636 25.077 25.3527 25.2939 25.3569H38.7415C38.9583 25.3526 39.1647 25.2634 39.3165 25.1086C39.4683 24.9538 39.5533 24.7456 39.5533 24.5288C39.5533 24.312 39.4683 24.1038 39.3165 23.949C39.1647 23.7942 38.9583 23.705 38.7415 23.7007Z" fill="url(#paint4_linear_1_1835)"/>
<path d="M25.2938 29.2993H35.8609C36.0777 29.2951 36.2842 29.206 36.4361 29.0511C36.5879 28.8963 36.673 28.688 36.673 28.4712C36.673 28.2543 36.5879 28.0461 36.436 27.8912C36.2842 27.7364 36.0777 27.6473 35.8608 27.6431H25.2938C25.077 27.6474 24.8706 27.7366 24.7188 27.8914C24.5671 28.0462 24.4821 28.2544 24.4821 28.4712C24.4821 28.688 24.5671 28.8962 24.7188 29.051C24.8706 29.2058 25.077 29.295 25.2938 29.2993Z" fill="url(#paint5_linear_1_1835)"/>
<path d="M20.2348 36.4734H15.8783C15.2196 36.4741 14.5881 36.7361 14.1224 37.2018C13.6566 37.6676 13.3946 38.2991 13.3939 38.9578V43.3143C13.3946 43.973 13.6566 44.6045 14.1224 45.0702C14.5881 45.536 15.2196 45.798 15.8783 45.7987H20.2348C20.8935 45.798 21.525 45.536 21.9908 45.0702C22.4565 44.6045 22.7185 43.973 22.7192 43.3143V38.9578C22.7185 38.2991 22.4565 37.6676 21.9908 37.2018C21.525 36.7361 20.8935 36.4741 20.2348 36.4734ZM21.063 43.3143C21.0627 43.5339 20.9753 43.7443 20.8201 43.8996C20.6649 44.0548 20.4544 44.1422 20.2348 44.1424H15.8783C15.6588 44.1422 15.4483 44.0548 15.293 43.8996C15.1378 43.7443 15.0505 43.5339 15.0502 43.3143V38.9578C15.0505 38.7382 15.1378 38.5277 15.293 38.3725C15.4483 38.2173 15.6588 38.1299 15.8783 38.1296H20.2348C20.4544 38.1299 20.6649 38.2173 20.8201 38.3725C20.9753 38.5277 21.0627 38.7382 21.063 38.9578V43.3143Z" fill="url(#paint6_linear_1_1835)"/>
<path d="M38.7415 38.3367H25.2938C25.077 38.3409 24.8704 38.43 24.7186 38.5849C24.5667 38.7397 24.4817 38.9479 24.4817 39.1648C24.4817 39.3817 24.5668 39.5899 24.7186 39.7448C24.8705 39.8996 25.077 39.9887 25.2939 39.9929H38.7415C38.9583 39.9886 39.1647 39.8994 39.3165 39.7446C39.4683 39.5898 39.5533 39.3816 39.5533 39.1648C39.5533 38.948 39.4683 38.7398 39.3165 38.585C39.1647 38.4302 38.9583 38.341 38.7415 38.3367Z" fill="url(#paint7_linear_1_1835)"/>
<path d="M35.8609 42.2793H25.2938C25.077 42.2835 24.8704 42.3726 24.7186 42.5275C24.5667 42.6823 24.4817 42.8906 24.4817 43.1074C24.4817 43.3243 24.5668 43.5325 24.7186 43.6874C24.8705 43.8422 25.077 43.9313 25.2939 43.9355H35.8609C36.0777 43.9313 36.2843 43.8422 36.4361 43.6874C36.588 43.5325 36.673 43.3243 36.673 43.1074C36.673 42.8905 36.588 42.6823 36.4361 42.5275C36.2843 42.3726 36.0777 42.2835 35.8609 42.2793Z" fill="url(#paint8_linear_1_1835)"/>
<path d="M25.2614 22.8556C25.4178 22.7054 25.5091 22.4999 25.5156 22.2832C25.5221 22.0664 25.4434 21.8558 25.2963 21.6964C25.1493 21.5371 24.9456 21.4418 24.729 21.431C24.5125 21.4201 24.3003 21.4947 24.1381 21.6385L22.4416 23.2046C22.2362 22.7949 21.9212 22.4503 21.5316 22.2089C21.142 21.9676 20.6931 21.839 20.2348 21.8374H15.8783C15.2196 21.8382 14.5881 22.1001 14.1224 22.5659C13.6566 23.0316 13.3946 23.6631 13.3939 24.3218V28.6784C13.3946 29.337 13.6566 29.9685 14.1224 30.4343C14.5881 30.9 15.2196 31.162 15.8783 31.1627H20.2348C20.8935 31.162 21.525 30.9 21.9908 30.4343C22.4565 29.9685 22.7185 29.337 22.7192 28.6784V25.2023L25.2614 22.8556ZM21.063 28.6784C21.0627 28.8979 20.9753 29.1084 20.8201 29.2636C20.6649 29.4189 20.4544 29.5062 20.2348 29.5065H15.8783C15.6588 29.5062 15.4483 29.4189 15.293 29.2636C15.1378 29.1084 15.0505 28.8979 15.0502 28.6784V24.3218C15.0505 24.1023 15.1378 23.8918 15.293 23.7366C15.4483 23.5813 15.6588 23.494 15.8783 23.4937H20.2348C20.4544 23.494 20.6649 23.5813 20.8201 23.7366C20.9753 23.8918 21.0627 24.1023 21.063 24.3218V24.4772L18.4941 26.8486L17.2256 25.1532C17.0938 24.9779 16.8979 24.8621 16.6808 24.8311C16.4637 24.8002 16.2432 24.8565 16.0676 24.9879C15.892 25.1193 15.7757 25.3149 15.7442 25.5319C15.7126 25.7489 15.7684 25.9696 15.8993 26.1455L17.7177 28.5761C17.7877 28.6682 17.8761 28.7448 17.9772 28.8009C18.0784 28.857 18.1901 28.8915 18.3054 28.9021C18.4206 28.9126 18.5367 28.8991 18.6464 28.8623C18.7561 28.8256 18.857 28.7663 18.9425 28.6885L21.063 26.7311V28.6784Z" fill="url(#paint9_linear_1_1835)"/>
<defs>
<linearGradient id="paint0_linear_1_1835" x1="9.43372" y1="26.5" x2="43.5664" y2="26.5" gradientUnits="userSpaceOnUse">
<stop stop-color="#BF5331"/>
<stop offset="1" stop-color="#EF6A5A"/>
</linearGradient>
<linearGradient id="paint1_linear_1_1835" x1="13.3939" y1="11.8638" x2="22.7192" y2="11.8638" gradientUnits="userSpaceOnUse">
<stop stop-color="#BF5331"/>
<stop offset="1" stop-color="#EF6A5A"/>
</linearGradient>
<linearGradient id="paint2_linear_1_1835" x1="24.4821" y1="9.89258" x2="39.5532" y2="9.89258" gradientUnits="userSpaceOnUse">
<stop stop-color="#BF5331"/>
<stop offset="1" stop-color="#EF6A5A"/>
</linearGradient>
<linearGradient id="paint3_linear_1_1835" x1="24.4817" y1="13.8352" x2="36.673" y2="13.8352" gradientUnits="userSpaceOnUse">
<stop stop-color="#BF5331"/>
<stop offset="1" stop-color="#EF6A5A"/>
</linearGradient>
<linearGradient id="paint4_linear_1_1835" x1="24.4817" y1="24.5288" x2="39.5533" y2="24.5288" gradientUnits="userSpaceOnUse">
<stop stop-color="#BF5331"/>
<stop offset="1" stop-color="#EF6A5A"/>
</linearGradient>
<linearGradient id="paint5_linear_1_1835" x1="24.4821" y1="28.4712" x2="36.673" y2="28.4712" gradientUnits="userSpaceOnUse">
<stop stop-color="#BF5331"/>
<stop offset="1" stop-color="#EF6A5A"/>
</linearGradient>
<linearGradient id="paint6_linear_1_1835" x1="13.3939" y1="41.136" x2="22.7192" y2="41.136" gradientUnits="userSpaceOnUse">
<stop stop-color="#BF5331"/>
<stop offset="1" stop-color="#EF6A5A"/>
</linearGradient>
<linearGradient id="paint7_linear_1_1835" x1="24.4817" y1="39.1648" x2="39.5533" y2="39.1648" gradientUnits="userSpaceOnUse">
<stop stop-color="#BF5331"/>
<stop offset="1" stop-color="#EF6A5A"/>
</linearGradient>
<linearGradient id="paint8_linear_1_1835" x1="24.4817" y1="43.1074" x2="36.673" y2="43.1074" gradientUnits="userSpaceOnUse">
<stop stop-color="#BF5331"/>
<stop offset="1" stop-color="#EF6A5A"/>
</linearGradient>
<linearGradient id="paint9_linear_1_1835" x1="13.3939" y1="26.2963" x2="25.516" y2="26.2963" gradientUnits="userSpaceOnUse">
<stop stop-color="#BF5331"/>
<stop offset="1" stop-color="#EF6A5A"/>
</linearGradient>
</defs>
</svg>
